<?xml version="1.0" encoding="utf-8"?>
<!-- Generator: Adobe Illustrator 27.4.0, SVG Export Plug-In . SVG Version: 6.00 Build 0)  -->
<svg version="1.1" id="Livello_1" xmlns="http://www.w3.org/2000/svg" xmlns:xlink="http://www.w3.org/1999/xlink" x="0px" y="0px"
	 viewBox="0 0 65.4 23.7" style="enable-background:new 0 0 65.4 23.7;" xml:space="preserve">
<style type="text/css">
	.st0{fill:#FFFFFF;}
	.st1{fill:#0D4F6C;}
	.st2{fill:#B91818;}
</style>
<polygon class="st0" points="5.1,2 7,2 10,10 7.5,10 7.2,9.3 4.8,9.3 4.5,10 2,10 "/>
<polygon class="st0" points="3.8,9 4,8.4 8,8.4 8.2,9 8.6,9 6.2,2.9 5.8,2.9 3.5,9 "/>
<polygon class="st0" points="6,3.2 7.9,8.1 4.1,8.1 "/>
<polygon class="st0" points="6.6,7.5 6,6.1 5.5,7.5 "/>
<polygon class="st0" points="10.2,2 12.3,2 14.5,5.1 14.5,2 17,2 17,10 14.9,10 12.7,6.9 12.7,10 10.2,10 "/>
<polygon class="st0" points="11.6,9 11.6,3.5 15.6,9 15.9,9 15.9,2.9 15.6,2.9 15.6,8.5 11.6,2.9 11.3,2.9 11.3,9 "/>
<polygon class="st0" points="18.9,4.1 17.4,4.1 17.4,2 23,2 23,4.1 21.5,4.1 21.5,10 18.9,10 "/>
<polygon class="st0" points="20.4,9 20.4,3.2 22.1,3.2 22.1,2.9 18.4,2.9 18.4,3.2 20.1,3.2 20.1,9 "/>
<path class="st1" d="M23.3,6c0-0.6,0.1-1.1,0.3-1.6s0.5-1,0.9-1.3c0.4-0.4,0.8-0.7,1.3-0.9c0.5-0.2,1.1-0.3,1.6-0.3S28.5,2,29,2.2
	s1,0.5,1.3,0.9c0.4,0.4,0.7,0.8,0.9,1.3s0.3,1.1,0.3,1.6c0,0.6-0.1,1.1-0.3,1.6s-0.5,1-0.9,1.3c-0.4,0.4-0.8,0.7-1.3,0.9
	s-1.1,0.3-1.6,0.3s-1.1-0.1-1.6-0.3s-1-0.5-1.3-0.9c-0.4-0.4-0.7-0.8-0.9-1.3C23.4,7.1,23.3,6.6,23.3,6z"/>
<path class="st1" d="M24.4,6c0,0.4,0.1,0.8,0.2,1.2c0.2,0.4,0.4,0.7,0.7,1c0.3,0.3,0.6,0.5,1,0.7s0.8,0.2,1.2,0.2s0.8-0.1,1.2-0.2
	c0.4-0.2,0.7-0.4,1-0.7c0.3-0.3,0.5-0.6,0.7-1s0.2-0.8,0.2-1.2s-0.1-0.8-0.2-1.2s-0.4-0.7-0.7-1s-0.6-0.5-1-0.7s-0.8-0.2-1.2-0.2
	S26.7,3,26.3,3.1c-0.4,0.2-0.7,0.4-1,0.7s-0.5,0.6-0.7,1S24.4,5.6,24.4,6z"/>
<path class="st1" d="M27.5,8.7c-0.4,0-0.7-0.1-1.1-0.2c-0.3-0.1-0.6-0.3-0.9-0.6S25,7.4,24.9,7s-0.2-0.7-0.2-1.1s0.1-0.7,0.2-1.1
	s0.3-0.6,0.6-0.9c0.3-0.3,0.5-0.5,0.9-0.6c0.3-0.1,0.7-0.2,1.1-0.2s0.7,0.1,1.1,0.2c0.3,0.1,0.6,0.3,0.9,0.6s0.4,0.5,0.6,0.9
	s0.2,0.7,0.2,1.1S30.2,6.6,30.1,7s-0.3,0.6-0.6,0.9c-0.3,0.3-0.5,0.4-0.9,0.6S27.8,8.7,27.5,8.7z"/>
<path class="st1" d="M25.8,6c0,0.2,0,0.5,0.1,0.7s0.2,0.4,0.4,0.5c0.2,0.2,0.3,0.3,0.5,0.4s0.4,0.1,0.7,0.1s0.5,0,0.7-0.1
	s0.4-0.2,0.5-0.4C28.9,7,29,6.9,29.1,6.7c0.1-0.2,0.1-0.4,0.1-0.7c0-0.2,0-0.4-0.1-0.7c-0.1-0.2-0.2-0.4-0.4-0.5
	c-0.2-0.2-0.3-0.3-0.5-0.4s-0.4-0.1-0.7-0.1s-0.4,0-0.7,0.1s-0.4,0.2-0.5,0.4C26.1,5,26,5.1,25.9,5.3C25.8,5.5,25.8,5.8,25.8,6z"/>
<polygon class="st0" points="32.3,2 34.4,2 36.6,5.1 36.6,2 39.1,2 39.1,10 37,10 34.8,6.9 34.8,10 32.3,10 "/>
<polygon class="st0" points="33.7,9 33.7,3.5 37.7,9 38,9 38,2.9 37.7,2.9 37.7,8.5 33.7,2.9 33.4,2.9 33.4,9 "/>
<polygon class="st0" points="40,2 44.7,2 44.7,4.1 42.5,4.1 42.5,5 44.7,5 44.7,7 42.5,7 42.5,7.9 44.8,7.9 44.8,10 40,10 "/>
<polygon class="st0" points="43.9,9 43.9,8.7 41.5,8.7 41.5,6.1 43.8,6.1 43.8,5.8 41.5,5.8 41.5,3.2 43.9,3.2 43.9,2.9 41.2,2.9 
	41.2,9 "/>
<polygon class="st0" points="45.5,2 48.2,2 48.2,7.9 50.4,7.9 50.4,10 45.5,10 "/>
<polygon class="st0" points="49.7,9 49.7,8.7 47,8.7 47,2.9 46.7,2.9 46.7,9 "/>
<polygon class="st0" points="50.8,2 53.4,2 53.4,7.9 55.7,7.9 55.7,10 50.8,10 "/>
<polygon class="st0" points="55,9 55,8.7 52.3,8.7 52.3,2.9 52,2.9 52,9 "/>
<path class="st1" d="M55.9,6c0-0.6,0.1-1.1,0.3-1.6s0.5-1,0.9-1.3s0.8-0.7,1.3-0.9C58.9,2,59.5,1.9,60,1.9c0.6,0,1.1,0.1,1.6,0.3
	s1,0.5,1.3,0.9s0.8,0.7,1.1,1.3c0.2,0.5,0.3,1.1,0.3,1.6c0,0.6-0.1,1.1-0.3,1.6s-0.5,1-0.9,1.3s-0.8,0.7-1.3,0.9s-1.1,0.3-1.6,0.3
	c-0.6,0-1.1-0.1-1.6-0.3s-1-0.5-1.3-0.9s-0.7-0.8-0.9-1.3C56,7.1,55.9,6.6,55.9,6z"/>
<path class="st1" d="M57,6c0,0.4,0.1,0.8,0.2,1.2c0.2,0.4,0.4,0.7,0.7,1c0.3,0.3,0.6,0.5,1,0.7s0.8,0.2,1.2,0.2s0.8-0.1,1.2-0.2
	c0.4-0.2,0.7-0.4,1-0.7c0.3-0.3,0.5-0.6,0.7-1s0.2-0.8,0.2-1.2S63.1,5.2,63,4.8c-0.2-0.4-0.4-0.7-0.7-1s-0.6-0.5-1-0.7
	s-0.8-0.2-1.2-0.2S59.3,3,58.9,3.1c-0.4,0.2-0.7,0.4-1,0.7s-0.5,0.6-0.7,1C57.1,5.2,57,5.6,57,6z"/>
<path class="st1" d="M60.1,8.7c-0.4,0-0.7-0.1-1.1-0.2s-0.6-0.3-0.9-0.6c-0.3-0.3-0.5-0.5-0.6-0.9c-0.1-0.3-0.2-0.7-0.2-1.1
	s0.1-0.7,0.2-1.1c0.1-0.3,0.3-0.6,0.6-0.9c0.3-0.1,0.6-0.3,0.9-0.5s0.7-0.2,1.1-0.2s0.7,0.1,1.1,0.2s0.6,0.3,0.9,0.6
	s0.5,0.5,0.6,0.9c0.1,0.3,0.2,0.7,0.2,1.1s-0.1,0.7-0.2,1.1c-0.1,0.3-0.3,0.6-0.6,0.9c-0.3,0.3-0.5,0.4-0.9,0.6S60.5,8.7,60.1,8.7z"
	/>
<path class="st1" d="M58.4,6c0,0.2,0,0.5,0.1,0.7s0.2,0.4,0.4,0.5c0.2,0.2,0.3,0.3,0.5,0.4s0.4,0.1,0.7,0.1c0.2,0,0.4,0,0.7-0.1
	c0.2-0.1,0.4-0.2,0.5-0.4c0.2-0.2,0.3-0.3,0.4-0.5s0.1-0.4,0.1-0.7c0-0.2,0-0.4-0.1-0.7c-0.1-0.2-0.2-0.4-0.4-0.5
	c-0.2-0.2-0.3-0.3-0.5-0.4s-0.4-0.1-0.7-0.1c-0.2,0-0.5,0-0.7,0.1S59,4.6,58.9,4.8c-0.2,0.2-0.3,0.3-0.4,0.5S58.4,5.8,58.4,6z"/>
<polygon class="st0" points="3.7,15.5 2.3,15.5 2.3,13.4 7.9,13.4 7.9,15.5 6.4,15.5 6.4,21.4 3.7,21.4 "/>
<polygon class="st0" points="5.2,20.4 5.2,14.6 6.9,14.6 6.9,14.3 3.2,14.3 3.2,14.6 4.9,14.6 4.9,20.4 "/>
<path class="st2" d="M8.1,17.4c0-0.6,0.1-1.1,0.3-1.6s0.5-1,0.9-1.3c0.4-0.4,0.8-0.7,1.3-0.9s1.1-0.3,1.6-0.3s1.1,0.1,1.6,0.3
	s1,0.5,1.3,0.9c0.4,0.4,0.7,0.8,0.9,1.3s0.3,1.1,0.3,1.6c0,0.6-0.1,1.1-0.3,1.6c-0.2,0.5-0.5,1-0.9,1.3c-0.4,0.4-0.8,0.7-1.3,0.9
	c-0.5,0.2-1.1,0.3-1.6,0.3s-1.1-0.1-1.6-0.3c-0.5-0.2-1-0.5-1.3-0.9c-0.4-0.4-0.7-0.8-0.9-1.3S8.1,18,8.1,17.4z"/>
<path class="st2" d="M9.2,17.4c0,0.4,0.1,0.8,0.2,1.2c0.2,0.4,0.4,0.7,0.7,1s0.6,0.5,1,0.7s0.8,0.2,1.2,0.2s0.8-0.1,1.2-0.2
	c0.4-0.2,0.7-0.4,1-0.7c0.3-0.3,0.5-0.6,0.7-1s0.2-0.8,0.2-1.2c0-0.4-0.1-0.8-0.2-1.2c-0.1-0.4-0.4-0.7-0.7-1s-0.6-0.5-1-0.7
	s-0.8-0.2-1.2-0.2s-0.8,0.1-1.2,0.2c-0.4,0.2-0.7,0.4-1,0.7s-0.5,0.6-0.7,1C9.2,16.6,9.2,17,9.2,17.4z"/>
<path class="st2" d="M12.3,20.1c-0.4,0-0.7-0.1-1.1-0.2c-0.3-0.1-0.6-0.3-0.9-0.6C10,19,9.8,18.8,9.7,18.4s-0.2-0.7-0.2-1.1
	s0.1-0.7,0.2-1.1c0.1-0.4,0.3-0.6,0.6-0.9c0.3-0.3,0.5-0.5,0.9-0.6c0.3-0.1,0.7-0.2,1.1-0.2s0.7,0.1,1.1,0.2
	c0.3,0.1,0.6,0.3,0.9,0.6c0.3,0.3,0.4,0.5,0.6,0.9c0.2,0.4,0.2,0.7,0.2,1.1S15,18,14.9,18.4s-0.3,0.6-0.6,0.9s-0.5,0.4-0.9,0.6
	S12.7,20.1,12.3,20.1z"/>
<path class="st2" d="M10.6,17.4c0,0.2,0,0.5,0.1,0.7s0.2,0.4,0.4,0.5c0.2,0.2,0.3,0.3,0.5,0.4s0.4,0.1,0.7,0.1s0.5,0,0.7-0.1
	s0.4-0.2,0.5-0.4c0.2-0.2,0.3-0.3,0.4-0.5s0.1-0.4,0.1-0.7c0-0.2,0-0.4-0.1-0.7c-0.1-0.2-0.2-0.4-0.4-0.5c-0.2-0.2-0.3-0.3-0.5-0.4
	s-0.4-0.1-0.7-0.1s-0.4,0-0.7,0.1s-0.4,0.2-0.5,0.4c-0.2,0.2-0.3,0.3-0.4,0.5C10.7,16.9,10.6,17.2,10.6,17.4z"/>
<polygon class="st0" points="17.2,13.4 19.8,13.4 19.8,19.3 22,19.3 22,21.4 17.2,21.4 "/>
<polygon class="st0" points="21.4,20.4 21.4,20.1 18.7,20.1 18.7,14.3 18.4,14.3 18.4,20.4 "/>
<polygon class="st0" points="23.3,13.4 24.7,16.9 26,13.4 28.8,13.4 25.7,21.4 23.6,21.4 20.5,13.4 "/>
<polygon class="st0" points="24.8,20.4 27.2,14.3 26.8,14.3 24.7,19.9 22.5,14.3 22.2,14.3 24.6,20.4 "/>
<polygon class="st0" points="29,13.4 33.7,13.4 33.7,15.5 31.6,15.5 31.6,16.4 33.7,16.4 33.7,18.4 31.6,18.4 31.6,19.3 33.8,19.3 
	33.8,21.4 29,21.4 "/>
<polygon class="st0" points="32.9,20.4 32.9,20.1 30.5,20.1 30.5,17.5 32.8,17.5 32.8,17.2 30.5,17.2 30.5,14.6 32.9,14.6 
	32.9,14.3 30.2,14.3 30.2,20.4 "/>
</svg>
