<?xml version="1.0" encoding="utf-8"?>
<!-- Generator: Adobe Illustrator 27.4.0, SVG Export Plug-In . SVG Version: 6.00 Build 0)  -->
<svg version="1.1" id="Livello_1" xmlns="http://www.w3.org/2000/svg" xmlns:xlink="http://www.w3.org/1999/xlink" x="0px" y="0px"
	 viewBox="0 0 283.5 283.5" style="enable-background:new 0 0 283.5 283.5;" xml:space="preserve">
<style type="text/css">
	.st0{fill:#716F6F;}
	.st1{fill:#FFFFFF;}
	.st2{fill:#E95545;}
	.st3{fill:#2BA565;}
	.st4{fill:#1879B8;}
</style>
<path class="st0" d="M35.1,173.4c0.3,0.2,0.5,0.3,0.7,0.5c0.8,0.5,1.2,1.3,1.3,2.3c0,0.8,0,1.7,0,2.5c0,0.4-0.1,0.5-0.5,0.5
	c-1.6-0.1-1.5,0.4-1.5-1.6c0-0.6,0-1.2,0-1.7c-0.2-1-0.9-1.6-1.9-1.6c-1,0-2.1,0-3.1,0c-0.4,0-0.6,0.1-0.6,0.6c0,1.3,0,2.5,0,3.8
	c0,0.4-0.1,0.5-0.5,0.5c-1.9,0-1.6,0.2-1.6-1.5c0-3.5,0-6.9,0-10.4c0-0.6,0.1-0.8,0.7-0.8c1.6,0,3.2,0,4.8,0c0.7,0,1.3,0.2,2,0.4
	c2.7,0.9,2.8,4.3,1.3,5.7C35.8,173,35.5,173.2,35.1,173.4z M31.5,172.7C31.5,172.7,31.5,172.7,31.5,172.7c0.7,0,1.4,0.1,2.1-0.1
	c1-0.2,1.6-1.2,1.5-2.3c-0.1-1.2-0.9-1.9-2.1-2c-1,0-2,0-3.1,0c-0.4,0-0.5,0.1-0.5,0.5c0,1.2,0,2.3-0.1,3.5c0,0.3,0.1,0.4,0.5,0.4
	C30.4,172.7,31,172.7,31.5,172.7z"/>
<path class="st1" d="M31.5,172.7c-0.6,0-1.1,0-1.7,0c-0.3,0-0.5-0.1-0.5-0.4c0-1.2,0.1-2.3,0.1-3.5c0-0.4,0.1-0.5,0.5-0.5
	c1,0,2,0,3.1,0c1.2,0,2,0.8,2.1,2c0.1,1.1-0.5,2.1-1.5,2.3C32.9,172.8,32.2,172.7,31.5,172.7C31.5,172.7,31.5,172.7,31.5,172.7z"/>
<g>
	<path class="st1" d="M147.6,181.9c-40.5,0-81.1,0-121.6,0c0-27.2,0-54.3,0-81.5c77.3,0,154.6,0,232,0c0,27.2,0,54.3,0,81.5
		c-16.8,0-33.6,0-50.5,0c0.1-0.1,0.1-0.2,0.2-0.3c0.8-0.8,1.2-1.8,1.2-3c0-1.2,0-2.4,0-3.6c0-3-2.3-5.1-5.3-4.8
		c-2.7,0.2-4.7,3-4.1,5.6c0.8,3.2,4.6,4.1,6.8,2.5c0.2-0.1,0.4-0.2,0.6-0.4c0.4,1.5,0,2.6-1.4,3.5c0.1,0.1,0.1,0.2,0.3,0.4
		c-1.2,0-2.2,0-3.3,0c0,0,0-0.1,0-0.1c0.2-0.1,0.4-0.1,0.5-0.2c-0.3-0.4-0.8-0.7-1-1.1c-0.3-0.7-0.8-0.9-1.5-0.8
		c-0.6,0-0.7,0.1-0.4,0.6c0.4,0.6,0.8,1.3,1.2,1.9c-17.2,0-34.5,0-51.7,0c0-1.2,0-2.4,0-3.7c0.2,0.1,0.4,0.2,0.5,0.3
		c1.4,1,3,1.1,4.5,0.4c1.6-0.8,2.4-2.1,2.5-3.9c0.1-2-1-3.8-2.9-4.6c-1.4-0.6-3.7-0.5-5.2,1c-1.1,1.2-1.5,2.6-1.5,4.1
		C147.5,177.7,147.6,179.8,147.6,181.9z M247.4,126.2c0.3-0.1,0.4-0.2,0.5-0.2c2.2-0.6,3.9-1.8,5.4-3.5c4.2-5.1,3.4-12.8-1.9-17
		c-3.2-2.5-6.9-3.6-10.9-3.7c-8.7-0.1-17.4,0-26.1,0c-0.6,0-0.7,0.2-0.7,0.7c0,8.3,0,16.6,0,24.9c0,8.6,0,17.2,0,25.9
		c0,0.6,0.2,0.7,0.8,0.7c7.4,0,14.8,0,22.2,0c1.8,0,3.6-0.1,5.4-0.2c3.8-0.3,7.3-1.6,10.3-4.1c2.5-2.1,4.2-4.7,4.7-8
		c0.2-1.3,0.2-2.7,0.1-4c-0.1-1.1-0.2-2.2-0.6-3.3c-1.5-4-4.3-6.7-8.5-8C248,126.6,247.8,126.4,247.4,126.2z M90.2,161.4
		c2.6-2.1,5.3-4.2,7.9-6.2c2.3-1.8,4.5-3.7,6.9-5.3c2.6-1.8,4.9-3.9,6.7-6.6c2.1-3.1,3.7-6.4,4.4-10c0.7-3.5,0.8-7,0-10.5
		c-1.3-6-4.1-11.1-8.9-15c-4.6-3.7-9.8-5.8-15.7-6.1c-3.8-0.2-7.6,0.5-11.1,1.9c-7.2,3-12.2,8.1-14.8,15.5
		c-1.2,3.3-1.8,6.7-1.5,10.2c0.1,1,0.1,2,0.3,3c0.5,3.4,1.7,6.6,3.6,9.6c1.3,2.1,2.7,4.2,4.7,5.8c2.7,2.1,5.4,4.2,8.1,6.4
		C83.9,156.4,87,158.9,90.2,161.4z M154.7,127.9c-0.1,2,0.1,3.9,0.6,5.8c1.5,6.2,4.7,11.4,9.8,15.4c3.4,2.6,6.7,5.2,10,7.8
		c1.8,1.4,3.6,2.8,5.3,4.3c0.2,0.2,0.4,0.3,0.7,0.1c2.7-2.2,5.5-4.4,8.2-6.6c1.8-1.4,3.4-2.9,5.3-4.1c3.2-2,5.8-4.6,7.9-7.7
		c2.4-3.5,4-7.2,4.4-11.5c0.3-2.8,0.3-5.6-0.3-8.4c-1.2-5.7-3.6-10.7-8.1-14.5c-6.6-5.7-14.1-8-22.7-6.4c-5.7,1-10.6,3.7-14.5,8
		C157,115.1,154.7,121.1,154.7,127.9z M56.2,118.7c0-5.7,0-11.3,0-17c0-0.7-0.1-0.8-0.7-0.5c-0.9,0.4-1.9,0.9-2.8,1.3
		c-0.7,0.3-0.8,0.7-0.8,1.4c0,10.9,0,21.8,0,32.7c0,2.8-0.6,5.4-2,7.9c-1.9,3.3-4.7,5.2-8.4,5.5c-2.5,0.2-5,0-7.4-0.8
		c-2-0.6-4-1.2-5.9-1.9c-0.4-0.1-0.6-0.1-0.7,0.4c-0.3,1-0.6,2.1-0.9,3.1c-0.1,0.4-0.1,0.6,0.4,0.8c2.9,1,5.9,2,9,2.5
		c2.8,0.4,5.6,0.5,8.4-0.2c2.6-0.7,5-1.7,6.9-3.6c2.3-2.3,3.7-5.1,4.4-8.3c0.6-2.8,0.7-5.6,0.7-8.4
		C56.2,128.6,56.2,123.7,56.2,118.7z M146.7,101c-0.3,0.1-0.4,0.1-0.6,0.2c-1,0.4-1.9,1-2.9,1.3c-0.6,0.2-0.8,0.5-0.8,1.2
		c0,10.5,0,21,0,31.5c0,2.2-0.2,4.3-0.8,6.4c-1,3.5-3,6.2-6.5,7.6c-2.7,1.1-5.6,1.2-8.4,0.5c-2.7-0.6-5.2-1.5-7.9-2.3
		c-0.8-0.2-0.8-0.3-1,0.5c-0.3,0.8-0.5,1.6-0.8,2.4c-0.4,1.1-0.4,1.1,0.7,1.5c3.4,1.2,6.9,2.2,10.5,2.5c3.2,0.3,6.4-0.1,9.4-1.4
		c2.9-1.2,4.9-3.5,6.5-6.1c1.9-3.1,2.4-6.6,2.4-10.1c0-11.6,0-23.3,0-34.9C146.7,101.6,146.7,101.4,146.7,101z M235,178.1
		C235,178.1,235,178.1,235,178.1c1.5,0,3,0,4.5,0c0.4,0,0.6-0.1,0.6-0.6c0-3,0-6,0-9c0-0.5-0.2-0.7-0.7-0.7c-3,0-6,0-9,0
		c-0.5,0-0.6,0.2-0.6,0.6c0,3,0,6,0,9c0,0.5,0.2,0.6,0.6,0.6C232,178.1,233.5,178.1,235,178.1z M246,173c0,1.5,0,3,0,4.6
		c0,0.4,0.1,0.6,0.5,0.6c3,0,6.1,0,9.1,0c0.4,0,0.6-0.2,0.6-0.6c0-3,0-5.9,0-8.9c0-0.5-0.1-0.7-0.7-0.7c-3,0-6,0-9,0
		c-0.5,0-0.6,0.1-0.6,0.6C246,170,246,171.5,246,173z M224,178.1c0-0.1,0.1-0.2,0.1-0.2c0-3.2,0-6.3,0-9.5c0-0.5-0.3-0.5-0.6-0.5
		c-3,0-6,0-9,0c-0.5,0-0.6,0.2-0.6,0.6c0,3,0,6,0,8.9c0,0.5,0.2,0.6,0.6,0.6C217.6,178.1,220.8,178.1,224,178.1z M35.1,173.4
		c0.4-0.3,0.7-0.5,1-0.7c1.6-1.5,1.4-4.9-1.3-5.7c-0.6-0.2-1.3-0.3-2-0.4c-1.6-0.1-3.2,0-4.8,0c-0.6,0-0.7,0.2-0.7,0.8
		c0,3.5,0,6.9,0,10.4c0,1.8-0.4,1.5,1.6,1.5c0.4,0,0.5-0.1,0.5-0.5c0-1.3,0-2.5,0-3.8c0-0.5,0.2-0.6,0.6-0.6c1,0,2.1,0,3.1,0
		c1,0,1.8,0.6,1.9,1.6c0.1,0.6,0.1,1.1,0,1.7c-0.1,1.9-0.2,1.5,1.5,1.6c0.4,0,0.5-0.2,0.5-0.5c0-0.8,0-1.7,0-2.5
		c0-1-0.4-1.7-1.3-2.3C35.6,173.8,35.4,173.6,35.1,173.4z M122.9,166.5c0,0-0.2,0-0.4,0c-3.9-0.1-7.1,3.9-6.1,7.9
		c0.8,3.1,3.5,5.1,6.9,4.9c2.9-0.1,5.1-1.9,5.9-4.7c0.1-0.4,0-0.6-0.4-0.6c-0.4,0-0.7,0-1.1,0c-0.2,0-0.5,0.2-0.5,0.4
		c-0.6,1.8-1.9,2.9-3.8,3.1c-1.9,0.2-3.7-0.9-4.6-2.6c-0.8-1.6-0.5-3.8,0.7-5.1c1-1.1,2.3-1.6,3.8-1.5c1.7,0.1,3,0.9,3.6,2.4
		c0.4,0.9,0.8,1.1,1.6,1c0.1,0,0.2,0,0.2,0c0.5,0,0.6-0.1,0.4-0.6C128.7,169,126.6,166.4,122.9,166.5z M92,171.8
		c-0.3-0.2-0.5-0.4-0.7-0.6c-1-1-2.3-1.2-3.6-0.8c-1.3,0.5-2.1,1.4-2.2,2.8c-0.1,1.6-0.1,3.2-0.1,4.8c0,1.3-0.2,1.2,1.2,1.2
		c0.5,0,0.7-0.2,0.7-0.7c0-1.7,0-3.3,0-5c0-1.1,1-2,2-2c1,0,1.8,0.9,1.8,2c0,1.5,0,2.9,0,4.4c0,1.4-0.2,1.2,1.2,1.2
		c0.6,0,0.7-0.2,0.7-0.7c0-1.7,0-3.4,0-5c-0.1-1.2,1-1.9,1.9-1.9c1,0,1.8,0.9,1.8,1.9c0,1.5,0,3,0,4.5c0,1.4-0.2,1.2,1.3,1.3
		c0.4,0,0.6-0.1,0.6-0.6c0-1.6,0-3.3,0-4.9c0-0.8-0.2-1.5-0.6-2.1C96.2,169.6,93.6,169.6,92,171.8z M138.4,178.2
		c0,0.3,0,0.5,0.1,0.6c0.1,0.2,0.3,0.4,0.4,0.4c0.5-0.1,1,0.3,1.4-0.2c0,0,0-0.1,0-0.1c0-1.6,0.1-3.1,0-4.7c-0.3-2.7-3-4.6-5.6-4
		c-2.6,0.6-4.3,3.3-3.7,5.9c0.8,3,4.4,4.3,6.9,2.5C138,178.5,138.2,178.4,138.4,178.2z M57.4,178.3c0,1,0,1,0.9,1c0.1,0,0.3,0,0.4,0
		c0.5,0.1,0.7-0.1,0.7-0.7c-0.1-1.3-0.1-2.5-0.1-3.8c-0.1-2-1.3-3.7-3.1-4.4c-1.9-0.6-3.9-0.1-5.2,1.4c-1.4,1.6-1.5,4.5-0.2,6
		c1.7,1.9,4.1,2.1,6.1,0.7C57,178.4,57.1,178.4,57.4,178.3z M48.2,176c-0.5,0-0.9,0-1.3,0c-0.2,0-0.6,0.2-0.6,0.4
		c-0.8,1.7-3.4,2-4.7,0.7c-0.4-0.4-0.7-1-0.8-1.7c0.3,0,0.5,0,0.7,0c1.9,0,3.8,0,5.7,0c1.4,0,1.4,0,1.2-1.4
		c-0.2-2.3-2.6-4.3-5.4-3.8c-2.7,0.5-4.3,3.1-3.6,5.7c0.5,1.9,2.1,3.3,3.9,3.4c2.2,0.2,4-0.9,4.9-2.8
		C48.1,176.4,48.1,176.3,48.2,176z M109.7,176c-0.5,0-0.9,0-1.3,0c-0.4,0-0.6,0.1-0.8,0.5c-0.5,1.1-1.5,1.5-2.6,1.5
		c-1.2,0-2.2-0.6-2.7-1.8c-0.3-0.6-0.2-0.7,0.4-0.7c2.1,0,4.3,0,6.4,0c0.5,0,0.7-0.2,0.7-0.7c0-0.3-0.1-0.7-0.1-1
		c-0.4-1.8-2.1-3.4-4-3.5c-2.1-0.2-4,0.9-4.8,2.8c-1.4,3.4,1.3,6.9,4.9,6.4C107.6,179.1,109.3,177.7,109.7,176z M168,174.8
		c0-2.7-1.9-4.7-4.7-4.7c-2.7,0-4.9,2.1-4.8,4.7c0,2.9,2.1,4.8,4.8,4.8C165.9,179.8,168,177.5,168,174.8z M169.5,174.9
		c0,2.6,2,4.7,4.6,4.8c2.9,0,4.9-2.1,4.9-4.9c0-2.6-2-4.6-4.6-4.7C171.7,170.1,169.5,172.2,169.5,174.9z M73.8,173.8
		c0,1.4,0,2.9,0,4.3c0,1.3-0.2,1.2,1.2,1.2c0.8,0,0.8,0,0.8-0.8c0-3.2,0-6.3,0-9.5c0-0.4,0.1-0.6,0.6-0.6c0.7,0,1.5,0,2.3,0
		c1.2,0,1.1,0.1,1.1-1.1c0-0.5-0.1-0.6-0.6-0.6c-2.6,0-5.3,0-7.9,0c-1.5,0-1.2,0-1.2,1.3c0,0.4,0.1,0.5,0.5,0.5c0.8,0,1.7,0,2.5,0
		c0.8,0,0.8,0,0.8,0.8C73.8,170.7,73.8,172.2,73.8,173.8z M191.3,176.2c0-0.8,0-1.7,0-2.5c0-0.7,0.3-1.3,0.9-1.6
		c0.8-0.5,1.5-0.6,2.4-0.1c0.8,0.4,1.1,1.1,1.1,2c0,1.6,0,3.1,0,4.7c0,0.2,0.2,0.5,0.3,0.5c0.5,0,1.1-0.1,1.6-0.2c0,0,0-0.1,0-0.2
		c-0.1-1.8,0-3.7-0.3-5.5c-0.3-2-2.3-3.3-4.4-3.1c-2,0.2-3.6,2-3.6,4c0,1.3,0,2.5,0,3.8c0,1.5-0.3,1.3,1.3,1.3
		c0.4,0,0.6-0.2,0.6-0.6C191.3,177.9,191.3,177.1,191.3,176.2z M61.4,172.9c0,1.7,0,3.5,0,5.2c0,1.3-0.2,1.1,1.1,1.1
		c0.7,0,0.7,0,0.7-0.8c0-3.6,0-7.2,0-10.7c0-1.1,0-1.1-1.2-1.1c0,0,0,0-0.1,0c-0.5-0.1-0.7,0.2-0.7,0.7
		C61.4,169.2,61.4,171,61.4,172.9z M182.8,173c0-1.8,0-3.5,0-5.3c0-1.1,0-1.1-1.1-1.1c-0.7,0-0.8,0-0.8,0.8c0,3.5,0,7.1,0,10.6
		c0,1.4-0.1,1.2,1.2,1.2c0.5,0,0.6-0.2,0.6-0.7C182.8,176.7,182.8,174.9,182.8,173z M142.5,176.2
		C142.5,176.2,142.4,176.2,142.5,176.2c-0.1,0.6-0.1,1.2-0.1,1.9c0,1.4-0.2,1.2,1.2,1.2c0.5,0,0.7-0.2,0.6-0.7c0-1.6,0-3.2,0-4.7
		c0-1.1,0.5-1.8,1.6-2c0.6-0.1,0.7-0.3,0.6-1.1c-0.1-0.6-0.5-0.5-0.9-0.4c-0.3,0.1-0.6,0.1-0.9,0.2c-1.3,0.4-2.1,1.2-2.2,2.6
		C142.4,174.2,142.5,175.2,142.5,176.2z M185.2,174.7c0,1.1,0,2.2,0,3.4c0,1.3-0.2,1.1,1.2,1.2c0.5,0,0.7-0.2,0.7-0.7
		c0-2.3,0-4.7,0-7c0-1.5,0.3-1.2-1.3-1.3c-0.4,0-0.5,0.1-0.5,0.5C185.2,172.1,185.2,173.4,185.2,174.7z M83.1,174.8
		c0-1.1,0-2.2,0-3.3c0-1.2,0-1.2-1.2-1.2c-0.5,0-0.7,0.1-0.7,0.7c0,2.3,0,4.7,0,7c0,1.3-0.3,1.2,1.3,1.2c0.5,0,0.6-0.2,0.6-0.6
		C83,177.3,83.1,176.1,83.1,174.8z M83.3,167.8c0-0.6-0.5-1.1-1.1-1c-0.6,0-1,0.6-1,1.1c0,0.5,0.5,1,1.1,1
		C82.8,168.9,83.3,168.4,83.3,167.8z M185.2,167.9c0,0.6,0.5,1.1,1,1.1c0.6,0,1-0.5,1-1.1c0-0.6-0.5-1-1.1-1
		C185.6,166.8,185.2,167.2,185.2,167.9z"/>
	<path class="st0" d="M201.3,181.9c-0.4-0.6-0.8-1.2-1.2-1.9c-0.3-0.5-0.2-0.6,0.4-0.6c0.7,0,1.2,0.1,1.5,0.8c0.2,0.5,0.7,0.8,1,1.1
		c-0.1,0-0.3,0.1-0.5,0.2c0,0,0,0.1,0,0.1c1.1,0,2.1,0,3.3,0c-0.1-0.2-0.2-0.3-0.3-0.4c1.3-0.9,1.8-2,1.4-3.5
		c-0.2,0.1-0.4,0.2-0.6,0.4c-2.2,1.6-6,0.7-6.8-2.5c-0.7-2.6,1.4-5.4,4.1-5.6c2.9-0.2,5.3,1.9,5.3,4.8c0,1.2,0,2.4,0,3.6
		c0,1.1-0.4,2.1-1.2,3c-0.1,0.1-0.1,0.2-0.2,0.3C205.4,181.9,203.3,181.9,201.3,181.9z M201.3,174.8c-0.2,1.4,1.1,2.9,2.9,2.9
		c1.5,0,2.8-1.3,2.8-2.9c0-1.6-1.3-3-2.8-3C202.5,171.8,201.2,173.1,201.3,174.8z"/>
	<path class="st0" d="M147.6,181.9c0-2.1-0.1-4.2-0.1-6.4c0-1.5,0.3-3,1.5-4.1c1.5-1.5,3.7-1.6,5.2-1c1.9,0.8,3,2.6,2.9,4.6
		c-0.1,1.8-0.9,3.2-2.5,3.9c-1.6,0.7-3.1,0.6-4.5-0.4c-0.1-0.1-0.3-0.2-0.5-0.3c0,1.3,0,2.5,0,3.7
		C148.9,181.9,148.2,181.9,147.6,181.9z M149.5,175c-0.2,1.3,1.1,2.8,2.8,2.8c1.6,0,2.8-1.2,2.8-2.8c0-1.6-1.4-3.1-2.9-3.1
		C150.6,172,149.4,173.5,149.5,175z"/>
	<path class="st2" d="M247.4,126.2c0.4,0.2,0.6,0.3,0.8,0.4c4.1,1.3,6.9,4,8.5,8c0.4,1,0.6,2.2,0.6,3.3c0.1,1.3,0.1,2.7-0.1,4
		c-0.5,3.3-2.2,5.9-4.7,8c-3,2.5-6.5,3.8-10.3,4.1c-1.8,0.1-3.6,0.2-5.4,0.2c-7.4,0-14.8,0-22.2,0c-0.6,0-0.8-0.1-0.8-0.7
		c0-8.6,0-17.2,0-25.9c0-8.3,0-16.6,0-24.9c0-0.6,0.1-0.7,0.7-0.7c8.7,0,17.4,0,26.1,0c4,0,7.7,1.1,10.9,3.7
		c5.2,4.2,6.1,11.9,1.9,17c-1.4,1.7-3.2,2.9-5.4,3.5C247.9,126,247.7,126.1,247.4,126.2z M230.3,149.6
		C230.3,149.6,230.3,149.6,230.3,149.6c3.2,0,6.5,0,9.7,0c3,0,5.7-0.8,8.2-2.5c2.7-1.9,4.3-4.4,4.5-7.8c0.1-2.9-1.1-5.3-3.3-7.3
		c-2.6-2.3-5.7-3.3-9-3.4c-7-0.1-14.1,0-21.1-0.1c-0.4,0-0.5,0.2-0.5,0.5c0,0.6,0.1,1.3,0.1,1.9c0,6,0,11.9,0,17.9
		c0,0.5,0.1,0.6,0.6,0.6C223.1,149.6,226.7,149.6,230.3,149.6z M218.9,106.4c0,0.1,0,0.2,0,0.3c0,5.7,0,11.3,0,17
		c0,0.4,0.2,0.5,0.5,0.5c7.1,0,14.2,0,21.3,0c1.8,0,3.6-0.4,5.3-1.3c1.9-1,3.6-2.3,4.5-4.3c1.4-3.2,0.8-6.1-1.6-8.6
		c-2.3-2.4-5.3-3.4-8.5-3.5c-7-0.1-14,0-21,0C219.2,106.3,219.1,106.3,218.9,106.4z"/>
	<path class="st3" d="M90.2,161.4c-3.2-2.5-6.3-5-9.4-7.5c-2.7-2.1-5.4-4.2-8.1-6.4c-2-1.6-3.4-3.7-4.7-5.8c-1.9-2.9-3-6.1-3.6-9.6
		c-0.2-1-0.2-2-0.3-3c-0.3-3.5,0.3-6.9,1.5-10.2c2.7-7.3,7.7-12.4,14.8-15.5c3.6-1.5,7.3-2.1,11.1-1.9c5.9,0.3,11.1,2.4,15.7,6.1
		c4.8,3.9,7.6,9,8.9,15c0.7,3.5,0.7,7,0,10.5c-0.7,3.7-2.3,6.9-4.4,10c-1.8,2.7-4.1,4.8-6.7,6.6c-2.4,1.6-4.6,3.5-6.9,5.3
		C95.4,157.3,92.8,159.3,90.2,161.4z M112.3,127.8c0.2-11.6-9.9-21.3-21.2-21.8c-13-0.5-22.9,10.1-22.9,21.9
		c0,11.4,9.4,21.9,21.8,22.1C102.2,150.2,112.7,139.8,112.3,127.8z"/>
	<path class="st4" d="M154.7,127.9c0-6.8,2.3-12.8,6.9-17.9c3.9-4.3,8.8-7,14.5-8c8.6-1.6,16.1,0.7,22.7,6.4
		c4.5,3.9,6.9,8.8,8.1,14.5c0.6,2.8,0.5,5.6,0.3,8.4c-0.4,4.2-2.1,8-4.4,11.5c-2.1,3.1-4.7,5.7-7.9,7.7c-1.9,1.2-3.6,2.7-5.3,4.1
		c-2.7,2.2-5.5,4.4-8.2,6.6c-0.3,0.2-0.5,0.1-0.7-0.1c-1.8-1.4-3.5-2.8-5.3-4.3c-3.3-2.6-6.7-5.2-10-7.8c-5.1-3.9-8.3-9.1-9.8-15.4
		C154.8,131.8,154.6,129.9,154.7,127.9z M158.9,128.6c0.1,0.8,0.1,2.1,0.3,3.4c1,4.9,3.3,9,7,12.3c3.9,3.5,8.6,5.4,13.8,5.7
		c2.5,0.1,4.9-0.2,7.3-1c4.5-1.5,8.3-3.9,11.1-7.8c1.7-2.3,3.1-4.7,4-7.4c0.7-2.1,1-4.3,0.9-6.5c-0.1-1.9-0.7-3.7-1.3-5.5
		c-0.7-1.7-1.3-3.5-2.2-5c-1.6-2.7-3.7-4.9-6.3-6.7c-3.4-2.3-7.1-3.7-11.3-3.9c-2.6-0.2-5.1,0.2-7.6,0.9c-4.6,1.4-8.4,4-11.4,7.8
		C160.3,118.7,159,123.2,158.9,128.6z"/>
	<path class="st3" d="M56.2,118.7c0,5,0,9.9,0,14.9c0,2.8-0.1,5.7-0.7,8.4c-0.7,3.2-2.1,6-4.4,8.3c-1.9,1.9-4.3,2.9-6.9,3.6
		c-2.8,0.7-5.6,0.6-8.4,0.2c-3.1-0.4-6.1-1.4-9-2.5c-0.4-0.2-0.5-0.3-0.4-0.8c0.3-1,0.7-2,0.9-3.1c0.1-0.5,0.3-0.5,0.7-0.4
		c2,0.6,4,1.3,5.9,1.9c2.4,0.7,4.9,1,7.4,0.8c3.7-0.4,6.6-2.2,8.4-5.5c1.4-2.4,2-5.1,2-7.9c0-10.9,0-21.8,0-32.7
		c0-0.7,0.2-1.1,0.8-1.4c1-0.4,1.9-0.8,2.8-1.3c0.6-0.3,0.7-0.2,0.7,0.5C56.2,107.4,56.2,113.1,56.2,118.7z"/>
	<path class="st4" d="M146.7,101c0,0.4,0,0.6,0,0.9c0,11.6,0,23.3,0,34.9c0,3.5-0.5,7-2.4,10.1c-1.6,2.6-3.6,4.8-6.5,6.1
		c-3,1.3-6.2,1.6-9.4,1.4c-3.6-0.3-7.1-1.3-10.5-2.5c-1.1-0.4-1.1-0.4-0.7-1.5c0.3-0.8,0.5-1.6,0.8-2.4c0.3-0.8,0.3-0.8,1-0.5
		c2.6,0.8,5.2,1.7,7.9,2.3c2.8,0.6,5.7,0.6,8.4-0.5c3.5-1.4,5.4-4.1,6.5-7.6c0.6-2.1,0.8-4.2,0.8-6.4c0-10.5,0-21,0-31.5
		c0-0.6,0.2-1,0.8-1.2c1-0.4,2-0.9,2.9-1.3C146.3,101.1,146.4,101.1,146.7,101z"/>
	<path class="st4" d="M235,178.1c-1.5,0-3,0-4.5,0c-0.5,0-0.7-0.1-0.6-0.6c0-3,0-6,0-9c0-0.4,0.1-0.6,0.6-0.6c3,0,6,0,9,0
		c0.5,0,0.7,0.2,0.7,0.7c0,3,0,6,0,9c0,0.5-0.2,0.6-0.6,0.6C238,178.1,236.5,178.1,235,178.1C235,178.1,235,178.1,235,178.1z"/>
	<path class="st2" d="M246,173c0-1.5,0-3,0-4.5c0-0.5,0.2-0.6,0.6-0.6c3,0,6,0,9,0c0.5,0,0.7,0.2,0.7,0.7c0,3,0,5.9,0,8.9
		c0,0.5-0.2,0.6-0.6,0.6c-3,0-6.1,0-9.1,0c-0.4,0-0.5-0.2-0.5-0.6C246,176,246,174.5,246,173z"/>
	<path class="st3" d="M224,178.1c-3.2,0-6.3,0-9.5,0c-0.5,0-0.6-0.1-0.6-0.6c0-3,0-6,0-8.9c0-0.5,0.1-0.6,0.6-0.6c3,0,6,0,9,0
		c0.3,0,0.6,0,0.6,0.5c0,3.2,0,6.3,0,9.5C224,177.9,224,178,224,178.1z"/>
	<path class="st0" d="M122.9,166.5c3.7-0.2,5.8,2.4,6.4,4.6c0.1,0.5,0,0.6-0.4,0.6c-0.1,0-0.2,0-0.2,0c-0.8,0.1-1.2-0.1-1.6-1
		c-0.6-1.5-1.9-2.3-3.6-2.4c-1.5-0.1-2.8,0.4-3.8,1.5c-1.2,1.3-1.5,3.5-0.7,5.1c0.9,1.8,2.7,2.8,4.6,2.6c2-0.2,3.2-1.2,3.8-3.1
		c0.1-0.2,0.3-0.4,0.5-0.4c0.4-0.1,0.7,0,1.1,0c0.4,0,0.5,0.2,0.4,0.6c-0.8,2.8-3,4.6-5.9,4.7c-3.4,0.2-6.2-1.9-6.9-4.9
		c-1-4,2.2-8,6.1-7.9C122.7,166.5,122.9,166.5,122.9,166.5z"/>
	<path class="st0" d="M92,171.8c1.6-2.1,4.3-2.1,5.8-0.1c0.5,0.6,0.6,1.4,0.6,2.1c0,1.6,0,3.3,0,4.9c0,0.4-0.2,0.6-0.6,0.6
		c-1.5,0-1.3,0.2-1.3-1.3c0-1.5,0-3,0-4.5c0-1-0.8-1.9-1.8-1.9c-0.9,0-2,0.7-1.9,1.9c0.1,1.7,0,3.4,0,5c0,0.5-0.1,0.8-0.7,0.7
		c-1.4-0.1-1.2,0.1-1.2-1.2c0-1.5,0-2.9,0-4.4c0-1.1-0.8-2-1.8-2c-1,0-2,0.9-2,2c0,1.7,0,3.3,0,5c0,0.5-0.1,0.7-0.7,0.7
		c-1.4,0-1.2,0.1-1.2-1.2c0-1.6,0-3.2,0.1-4.8c0.1-1.4,1-2.4,2.2-2.8c1.3-0.5,2.5-0.2,3.6,0.8C91.5,171.3,91.7,171.5,92,171.8z"/>
	<path class="st0" d="M138.4,178.2c-0.2,0.1-0.4,0.2-0.5,0.3c-2.5,1.8-6.1,0.5-6.9-2.5c-0.7-2.6,1-5.3,3.7-5.9
		c2.6-0.6,5.3,1.3,5.6,4c0.2,1.5,0,3.1,0,4.7c0,0,0,0.1,0,0.1c-0.4,0.5-1,0.2-1.4,0.2c-0.1,0-0.3-0.2-0.4-0.4
		C138.4,178.7,138.5,178.5,138.4,178.2z M132.8,175c0,1.6,1.2,2.8,2.8,2.8c1.7,0,2.8-1.2,2.9-2.8c0.1-1.7-1.4-3-2.9-3
		C134,172,132.7,173.4,132.8,175z"/>
	<path class="st0" d="M57.4,178.3c-0.2,0.1-0.4,0.1-0.5,0.2c-2.1,1.5-4.5,1.2-6.1-0.7c-1.4-1.5-1.3-4.4,0.2-6c1.3-1.5,3.3-2,5.2-1.4
		c1.8,0.6,3.1,2.4,3.1,4.4c0,1.3,0.1,2.5,0.1,3.8c0,0.6-0.2,0.7-0.7,0.7c-0.1,0-0.3,0-0.4,0C57.4,179.2,57.4,179.2,57.4,178.3z
		 M54.5,177.8c1.6,0,2.9-1.3,2.9-2.8c0-2-1.8-3-2.9-3c-1.5,0-2.9,1.4-2.9,2.9C51.6,176.5,52.9,177.8,54.5,177.8z"/>
	<path class="st0" d="M48.2,176c-0.1,0.3-0.1,0.5-0.2,0.6c-0.8,1.9-2.7,2.9-4.9,2.8c-1.8-0.1-3.4-1.6-3.9-3.4
		c-0.7-2.6,0.9-5.2,3.6-5.7c2.8-0.5,5.2,1.5,5.4,3.8c0.2,1.4,0.2,1.4-1.2,1.4c-1.9,0-3.8,0-5.7,0c-0.2,0-0.4,0-0.7,0
		c0,0.7,0.3,1.2,0.8,1.7c1.3,1.3,3.9,1,4.7-0.7c0.1-0.2,0.4-0.4,0.6-0.4C47.2,175.9,47.6,176,48.2,176z M46.5,173.9
		c0-0.1,0-0.3,0-0.4c-0.3-1-1.4-1.7-2.5-1.8c-1.8-0.1-2.7,0.8-3.1,1.7c-0.2,0.4,0,0.5,0.4,0.5c1.6,0,3.2,0,4.8,0
		C46.1,173.9,46.3,173.9,46.5,173.9z"/>
	<path class="st0" d="M109.7,176c-0.3,1.7-2,3.2-3.8,3.4c-3.6,0.4-6.3-3-4.9-6.4c0.7-1.8,2.7-2.9,4.8-2.8c1.9,0.2,3.6,1.7,4,3.5
		c0.1,0.3,0.1,0.7,0.1,1c0,0.5-0.2,0.7-0.7,0.7c-2.1,0-4.3,0-6.4,0c-0.6,0-0.7,0.1-0.4,0.7c0.5,1.1,1.4,1.8,2.7,1.8
		c1.1,0,2.1-0.4,2.6-1.5c0.2-0.3,0.4-0.5,0.8-0.5C108.8,176,109.2,176,109.7,176z M108,173.9c0-0.2,0-0.3-0.1-0.3
		c-0.6-1.6-2.7-2.4-4.2-1.6c-0.6,0.3-1,0.9-1.4,1.4c-0.2,0.3-0.1,0.6,0.3,0.6c1.5,0,3.1,0,4.6,0C107.5,173.9,107.7,173.9,108,173.9z
		"/>
	<path class="st0" d="M168,174.8c0,2.7-2.1,4.9-4.7,4.9c-2.6-0.1-4.7-1.9-4.8-4.8c0-2.6,2.1-4.7,4.8-4.7
		C166.1,170.2,168,172.1,168,174.8z M163.3,171.7c-1.6,0-2.9,1.3-2.9,2.8c0,1.7,1.3,3,3,3c1.5,0,2.9-1.4,2.9-2.9
		C166.3,173.1,164.8,171.7,163.3,171.7z"/>
	<path class="st0" d="M169.5,174.9c0-2.7,2.2-4.8,4.9-4.7c2.6,0,4.6,2,4.6,4.7c0,2.8-2,4.9-4.9,4.9
		C171.4,179.6,169.4,177.4,169.5,174.9z M177.1,174.6c0-1.7-1.3-2.9-3-2.9c-1.6,0-2.9,1.4-2.8,3c0,1.5,1.4,2.9,2.9,2.9
		C175.8,177.5,177.1,176.2,177.1,174.6z"/>
	<path class="st0" d="M73.8,173.8c0-1.5,0-3.1,0-4.6c0-0.8,0-0.8-0.8-0.8c-0.8,0-1.7,0-2.5,0c-0.4,0-0.5-0.1-0.5-0.5
		c0.1-1.2-0.3-1.3,1.2-1.3c2.6,0,5.3,0,7.9,0c0.5,0,0.6,0.2,0.6,0.6c0,1.3,0.1,1.1-1.1,1.1c-0.8,0-1.5,0-2.3,0
		c-0.5,0-0.6,0.2-0.6,0.6c0,3.2,0,6.3,0,9.5c0,0.8,0,0.8-0.8,0.8c-1.4,0-1.2,0.1-1.2-1.2C73.8,176.6,73.8,175.2,73.8,173.8z"/>
	<path class="st0" d="M191.3,176.2c0,0.8,0,1.6,0,2.4c0,0.4-0.1,0.6-0.6,0.6c-1.6,0-1.3,0.2-1.3-1.3c0-1.3,0-2.5,0-3.8
		c0-2,1.6-3.8,3.6-4c2.1-0.2,4.1,1.1,4.4,3.1c0.2,1.8,0.2,3.7,0.3,5.5c0,0.1,0,0.2,0,0.2c-0.5,0.1-1.1,0.2-1.6,0.2
		c-0.1,0-0.3-0.3-0.3-0.5c0-1.6,0-3.1,0-4.7c0-0.9-0.3-1.6-1.1-2c-0.8-0.4-1.6-0.3-2.4,0.1c-0.6,0.4-0.9,0.9-0.9,1.6
		C191.3,174.6,191.3,175.4,191.3,176.2z"/>
	<path class="st0" d="M61.4,172.9c0-1.9,0-3.7,0-5.6c0-0.5,0.1-0.8,0.7-0.7c0,0,0,0,0.1,0c1.2,0,1.2,0,1.2,1.1c0,3.6,0,7.2,0,10.7
		c0,0.8,0,0.8-0.7,0.8c-1.3,0-1.1,0.1-1.1-1.1C61.4,176.4,61.4,174.6,61.4,172.9z"/>
	<path class="st0" d="M182.8,173c0,1.9,0,3.7,0,5.6c0,0.5-0.1,0.7-0.6,0.7c-1.4-0.1-1.2,0.2-1.2-1.2c0-3.5,0-7.1,0-10.6
		c0-0.8,0-0.8,0.8-0.8c1.1,0,1.1,0,1.1,1.1C182.8,169.5,182.8,171.3,182.8,173z"/>
	<path class="st0" d="M142.5,176.2c0-1-0.1-2,0-3c0.1-1.4,0.9-2.2,2.2-2.6c0.3-0.1,0.6-0.2,0.9-0.2c0.4-0.1,0.8-0.2,0.9,0.4
		c0.1,0.7,0,0.9-0.6,1.1c-1.1,0.2-1.6,0.9-1.6,2c0,1.6,0,3.2,0,4.7c0,0.5-0.1,0.7-0.6,0.7c-1.4,0-1.2,0.2-1.2-1.2
		C142.4,177.4,142.4,176.8,142.5,176.2C142.4,176.2,142.5,176.2,142.5,176.2z"/>
	<path class="st0" d="M185.2,174.7c0-1.3,0-2.6,0-3.9c0-0.4,0.1-0.5,0.5-0.5c1.6,0,1.3-0.2,1.3,1.3c0,2.3,0,4.7,0,7
		c0,0.5-0.1,0.7-0.7,0.7c-1.4,0-1.2,0.1-1.2-1.2C185.2,176.9,185.2,175.8,185.2,174.7z"/>
	<path class="st0" d="M83.1,174.8c0,1.3,0,2.5,0,3.8c0,0.5-0.1,0.7-0.6,0.6c-1.5,0-1.3,0.1-1.3-1.2c0-2.3,0-4.7,0-7
		c0-0.5,0.2-0.7,0.7-0.7c1.2,0,1.2,0,1.2,1.2C83.1,172.6,83.1,173.7,83.1,174.8z"/>
	<path class="st0" d="M83.3,167.8c0,0.6-0.5,1.1-1,1.1c-0.6,0-1-0.4-1.1-1c0-0.6,0.4-1.1,1-1.1C82.8,166.8,83.3,167.2,83.3,167.8z"
		/>
	<path class="st0" d="M185.2,167.9c0-0.6,0.4-1,1-1c0.6,0,1.1,0.4,1.1,1c0,0.6-0.5,1.1-1,1.1C185.7,169,185.2,168.5,185.2,167.9z"/>
	<path class="st1" d="M201.3,174.8c-0.1-1.6,1.2-2.9,2.8-3c1.5,0,2.8,1.4,2.8,3c0,1.6-1.3,2.9-2.8,2.9
		C202.5,177.6,201.1,176.1,201.3,174.8z"/>
	<path class="st1" d="M149.5,175c-0.1-1.6,1.1-3,2.8-3.1c1.5-0.1,2.9,1.4,2.9,3.1c0,1.6-1.2,2.8-2.8,2.8
		C150.6,177.9,149.3,176.3,149.5,175z"/>
	<path class="st1" d="M230.3,149.6c-3.6,0-7.2,0-10.8,0c-0.5,0-0.6-0.1-0.6-0.6c0-6,0-11.9,0-17.9c0-0.6,0-1.3-0.1-1.9
		c0-0.4,0.1-0.5,0.5-0.5c7,0,14.1-0.1,21.1,0.1c3.3,0.1,6.4,1.1,9,3.4c2.2,1.9,3.4,4.3,3.3,7.3c-0.1,3.3-1.7,5.9-4.5,7.8
		c-2.5,1.7-5.2,2.5-8.2,2.5C236.8,149.6,233.5,149.6,230.3,149.6C230.3,149.6,230.3,149.6,230.3,149.6z"/>
	<path class="st1" d="M218.9,106.4c0.2,0,0.4,0,0.6,0c7,0,14-0.1,21,0c3.2,0.1,6.2,1.1,8.5,3.5c2.4,2.5,2.9,5.5,1.6,8.6
		c-0.9,2-2.6,3.3-4.5,4.3c-1.6,0.9-3.4,1.3-5.3,1.3c-7.1,0-14.2,0-21.3,0c-0.3,0-0.5,0-0.5-0.5c0-5.7,0-11.3,0-17
		C218.8,106.6,218.8,106.5,218.9,106.4z"/>
	<path class="st1" d="M112.3,127.8c0.4,11.9-10.1,22.4-22.3,22.2c-12.4-0.2-21.9-10.7-21.8-22.1c0-11.8,9.9-22.4,22.9-21.9
		C102.5,106.5,112.5,116.3,112.3,127.8z M83.7,121.6c0.1,0.4,0.2,1.1,0.4,1.8c0.9,2.9,4.2,3.9,6.4,2c2.2-1.9,2.8-5.2,1.4-7.8
		c-1.3-2.2-3.9-2.8-5.9-1.3C84.4,117.6,83.8,119.3,83.7,121.6z M100.3,139.7c0,0,0-0.1,0-0.1c-0.2,0-0.4,0.1-0.6,0.1
		c-2.3,0.6-4.5,0.8-6.7-0.1c-2-0.7-3.7-1.9-5.1-3.4c-0.6-0.7-1.1-1.5-1.6-2.2c-0.3-0.4-0.2-0.6,0.3-0.6c0.7,0,1.3-0.1,2-0.1
		c2.2-0.1,4.5-0.1,6.7-0.2c2.3-0.1,4.7-0.2,7-0.2c0.6,0,1.2-0.1,1.7-0.1c-1.4-0.2-2.8-0.3-4.2-0.3c-3.7-0.1-7.4-0.3-11.1-0.4
		c-1.3,0-2.7-0.1-4-0.1c-0.3,0-0.5,0.1-0.4,0.4c0,0.5,0,1,0.1,1.5c0.5,2,1.7,3.7,3.2,5c2.3,2,5,3,8.1,2.7
		C97.4,141.3,98.9,140.7,100.3,139.7z M105.6,123c-0.1-0.7-0.1-1.4-0.2-2c-0.3-1.7-0.9-3.4-2.1-4.7c-0.5-0.5-1-0.8-1.7-0.7
		c-0.7,0.2-0.8,0.8-0.9,1.3c-0.4,2.3,0,4.5,1,6.6c0.3,0.7,0.8,1.3,1.3,1.9c1,1,2.1,0.8,2.5-0.6C105.5,124.2,105.5,123.6,105.6,123z"
		/>
	<path class="st1" d="M158.9,128.6c0.1-5.4,1.3-9.9,4.4-13.8c2.9-3.8,6.7-6.4,11.4-7.8c2.5-0.7,5-1.1,7.6-0.9
		c4.1,0.3,7.9,1.6,11.3,3.9c2.6,1.8,4.7,4.1,6.3,6.7c0.9,1.5,1.6,3.3,2.2,5c0.7,1.8,1.2,3.6,1.3,5.5c0.1,2.2-0.1,4.4-0.9,6.5
		c-0.9,2.7-2.4,5.1-4,7.4c-2.8,3.9-6.7,6.3-11.1,7.8c-2.4,0.8-4.8,1.2-7.3,1c-5.3-0.3-9.9-2.2-13.8-5.7c-3.7-3.3-6-7.5-7-12.3
		C159,130.7,159,129.4,158.9,128.6z M174.3,121.2c0,1.3,0.3,2.5,1.1,3.5c1.4,1.9,3.8,2.4,5.8,0.7c2.4-2,2.8-5.7,1-8.2
		c-1.3-1.7-3.6-2.2-5.4-0.9C175.1,117.5,174.3,119.2,174.3,121.2z M190.8,139.7c0-0.1,0-0.1,0-0.2c-0.4,0.1-0.8,0.2-1.3,0.3
		c-1.5,0.3-3,0.5-4.5,0.1c-2.5-0.6-4.6-1.8-6.4-3.5c-0.7-0.7-1.3-1.7-1.9-2.5c-0.2-0.3-0.1-0.5,0.3-0.5c0.6,0,1.1-0.1,1.7-0.1
		c1.9-0.1,3.9-0.1,5.8-0.1c0.2,0,0.4,0,0.6,0c2.9-0.1,5.8-0.2,8.7-0.3c0.3,0,0.5,0,0.8-0.1c0-0.1,0-0.1,0-0.2
		c-6.6-0.2-13.2-0.5-19.9-0.7c0.4,4.2,2.6,7,6.1,8.7C184.3,142.1,187.7,142,190.8,139.7z M196.3,123.5c-0.1-2.1-0.4-3.8-1.2-5.4
		c-0.4-0.8-0.9-1.5-1.5-2.1c-0.8-0.8-1.8-0.5-2.2,0.5c-0.1,0.2-0.2,0.5-0.2,0.7c-0.4,2.5,0.2,4.9,1.4,7c0.3,0.6,0.8,1.1,1.2,1.5
		c0.8,0.7,1.6,0.5,2-0.5C196.1,124.6,196.2,123.9,196.3,123.5z"/>
	<path class="st1" d="M132.8,175c-0.1-1.6,1.2-3,2.8-3c1.4,0,2.9,1.3,2.9,3c0,1.6-1.2,2.8-2.9,2.8C134,177.8,132.8,176.6,132.8,175z
		"/>
	<path class="st1" d="M54.5,177.8c-1.6,0-2.9-1.3-2.9-2.9c0-1.5,1.4-2.9,2.9-2.9c1.2,0,3,1,2.9,3C57.4,176.5,56.1,177.8,54.5,177.8z
		"/>
	<path class="st1" d="M46.5,173.9c-0.2,0-0.3,0-0.5,0c-1.6,0-3.2,0-4.8,0c-0.4,0-0.5-0.1-0.4-0.5c0.5-0.9,1.3-1.8,3.1-1.7
		c1.1,0.1,2.1,0.8,2.5,1.8C46.5,173.6,46.5,173.7,46.5,173.9z"/>
	<path class="st1" d="M108,173.9c-0.3,0-0.5,0.1-0.7,0.1c-1.5,0-3.1,0-4.6,0c-0.5,0-0.5-0.3-0.3-0.6c0.4-0.5,0.8-1.1,1.4-1.4
		c1.5-0.8,3.5,0,4.2,1.6C107.9,173.6,108,173.7,108,173.9z"/>
	<path class="st1" d="M163.3,171.7c1.6,0,3,1.4,3,2.9c0,1.5-1.4,2.9-2.9,2.9c-1.7,0-3-1.3-3-3C160.4,173,161.7,171.7,163.3,171.7z"
		/>
	<path class="st1" d="M177.1,174.6c0,1.6-1.3,2.9-2.9,2.9c-1.5,0-2.9-1.4-2.9-2.9c0-1.6,1.3-2.9,2.8-3
		C175.8,171.7,177.1,173,177.1,174.6z"/>
	<path class="st3" d="M83.7,121.6c0.1-2.3,0.7-4,2.3-5.2c2.1-1.5,4.6-1,5.9,1.3c1.4,2.5,0.8,5.9-1.4,7.8c-2.2,1.8-5.5,0.8-6.4-2
		C83.9,122.7,83.8,122,83.7,121.6z"/>
	<path class="st3" d="M100.3,139.7c-1.4,1-2.9,1.7-4.6,1.8c-3.1,0.3-5.8-0.7-8.1-2.7c-1.5-1.4-2.7-3-3.2-5c-0.1-0.5-0.1-1-0.1-1.5
		c0-0.3,0.2-0.4,0.4-0.4c1.3,0,2.7,0.1,4,0.1c3.7,0.1,7.4,0.3,11.1,0.4c1.4,0.1,2.8,0.1,4.2,0.3c-0.6,0-1.1,0.1-1.7,0.1
		c-2.3,0.1-4.7,0.2-7,0.2c-2.2,0.1-4.5,0.1-6.7,0.2c-0.7,0-1.3,0.1-2,0.1c-0.5,0-0.6,0.2-0.3,0.6c0.5,0.8,1,1.6,1.6,2.2
		c1.4,1.5,3.1,2.7,5.1,3.4c2.2,0.8,4.5,0.7,6.7,0.1c0.2-0.1,0.4-0.1,0.6-0.1C100.3,139.6,100.3,139.6,100.3,139.7z"/>
	<path class="st3" d="M105.6,123c-0.1,0.5-0.1,1.2-0.2,1.8c-0.4,1.4-1.4,1.7-2.5,0.6c-0.5-0.5-1-1.2-1.3-1.9c-1-2.1-1.4-4.3-1-6.6
		c0.1-0.6,0.2-1.2,0.9-1.3c0.7-0.2,1.3,0.1,1.7,0.7c1.2,1.4,1.8,3,2.1,4.7C105.5,121.6,105.5,122.3,105.6,123z"/>
	<path class="st4" d="M174.3,121.2c0-2,0.8-3.7,2.4-4.9c1.7-1.3,4.1-0.8,5.4,0.9c1.8,2.5,1.4,6.2-1,8.2c-2,1.7-4.3,1.2-5.8-0.7
		C174.6,123.7,174.3,122.5,174.3,121.2z"/>
	<path class="st4" d="M190.8,139.7c-3.2,2.3-6.5,2.4-10,0.7c-3.6-1.7-5.8-4.5-6.1-8.7c6.7,0.2,13.3,0.5,19.9,0.7c0,0.1,0,0.1,0,0.2
		c-0.3,0-0.5,0.1-0.8,0.1c-2.9,0.1-5.8,0.2-8.7,0.3c-0.2,0-0.4,0-0.6,0c-1.9,0-3.9,0.1-5.8,0.1c-0.6,0-1.1,0.1-1.7,0.1
		c-0.4,0-0.5,0.2-0.3,0.5c0.6,0.9,1.2,1.8,1.9,2.5c1.8,1.8,3.9,3,6.4,3.5c1.5,0.3,3,0.2,4.5-0.1c0.4-0.1,0.8-0.2,1.3-0.3
		C190.8,139.6,190.8,139.7,190.8,139.7z"/>
	<path class="st4" d="M196.3,123.5c-0.1,0.4-0.2,1.1-0.4,1.7c-0.4,1-1.2,1.2-2,0.5c-0.5-0.4-0.9-0.9-1.2-1.5c-1.2-2.2-1.8-4.5-1.4-7
		c0-0.2,0.1-0.5,0.2-0.7c0.4-1,1.4-1.3,2.2-0.5c0.6,0.6,1.1,1.4,1.5,2.1C195.9,119.7,196.2,121.4,196.3,123.5z"/>
</g>
</svg>
