<?xml version="1.0" encoding="utf-8"?>
<!-- Generator: Adobe Illustrator 27.4.0, SVG Export Plug-In . SVG Version: 6.00 Build 0)  -->
<svg version="1.1" id="Livello_1" xmlns="http://www.w3.org/2000/svg" xmlns:xlink="http://www.w3.org/1999/xlink" x="0px" y="0px"
	 viewBox="0 0 283.5 107" style="enable-background:new 0 0 283.5 107;" xml:space="preserve">
<style type="text/css">
	.st0{fill:#716F6F;}
	.st1{fill:#FFFFFF;}
	.st2{fill:#E95545;}
	.st3{fill:#2BA565;}
	.st4{fill:#1879B8;}
</style>
<path class="st0" d="M35.1,87.9c0.3,0.2,0.5,0.3,0.7,0.5c0.8,0.5,1.2,1.3,1.3,2.3c0,0.8,0,1.7,0,2.5c0,0.4-0.1,0.5-0.5,0.5
	c-1.6-0.1-1.5,0.4-1.5-1.6c0-0.6,0-1.2,0-1.7c-0.2-1-0.9-1.6-1.9-1.6s-2.1,0-3.1,0c-0.4,0-0.6,0.1-0.6,0.6c0,1.3,0,2.5,0,3.8
	c0,0.4-0.1,0.5-0.5,0.5c-1.9,0-1.6,0.2-1.6-1.5c0-3.5,0-6.9,0-10.4c0-0.6,0.1-0.8,0.7-0.8c1.6,0,3.2,0,4.8,0c0.7,0,1.3,0.2,2,0.4
	c2.7,0.9,2.8,4.3,1.3,5.7C35.8,87.5,35.5,87.7,35.1,87.9z M31.5,87.2L31.5,87.2c0.7,0,1.4,0.1,2.1-0.1c1-0.2,1.6-1.2,1.5-2.3
	c-0.1-1.2-0.9-1.9-2.1-2c-1,0-2,0-3.1,0c-0.4,0-0.5,0.1-0.5,0.5c0,1.2,0,2.3-0.1,3.5c0,0.3,0.1,0.4,0.5,0.4
	C30.4,87.2,31,87.2,31.5,87.2z"/>
<path class="st1" d="M31.5,87.2c-0.6,0-1.1,0-1.7,0c-0.3,0-0.5-0.1-0.5-0.4c0-1.2,0.1-2.3,0.1-3.5c0-0.4,0.1-0.5,0.5-0.5
	c1,0,2,0,3.1,0c1.2,0,2,0.8,2.1,2c0.1,1.1-0.5,2.1-1.5,2.3C32.9,87.3,32.2,87.2,31.5,87.2L31.5,87.2z"/>
<g>
	<path class="st1" d="M147.6,96.4c-40.5,0-81.1,0-121.6,0c0-27.2,0-54.3,0-81.5c77.3,0,154.6,0,232,0c0,27.2,0,54.3,0,81.5
		c-16.8,0-33.6,0-50.5,0c0.1-0.1,0.1-0.2,0.2-0.3c0.8-0.8,1.2-1.8,1.2-3s0-2.4,0-3.6c0-3-2.3-5.1-5.3-4.8c-2.7,0.2-4.7,3-4.1,5.6
		c0.8,3.2,4.6,4.1,6.8,2.5c0.2-0.1,0.4-0.2,0.6-0.4c0.4,1.5,0,2.6-1.4,3.5c0.1,0.1,0.1,0.2,0.3,0.4c-1.2,0-2.2,0-3.3,0v-0.1
		c0.2-0.1,0.4-0.1,0.5-0.2c-0.3-0.4-0.8-0.7-1-1.1c-0.3-0.7-0.8-0.9-1.5-0.8c-0.6,0-0.7,0.1-0.4,0.6c0.4,0.6,0.8,1.3,1.2,1.9
		c-17.2,0-34.5,0-51.7,0c0-1.2,0-2.4,0-3.7c0.2,0.1,0.4,0.2,0.5,0.3c1.4,1,3,1.1,4.5,0.4c1.6-0.8,2.4-2.1,2.5-3.9
		c0.1-2-1-3.8-2.9-4.6c-1.4-0.6-3.7-0.5-5.2,1c-1.1,1.2-1.5,2.6-1.5,4.1C147.5,92.2,147.6,94.3,147.6,96.4z M247.4,40.7
		c0.3-0.1,0.4-0.2,0.5-0.2c2.2-0.6,3.9-1.8,5.4-3.5c4.2-5.1,3.4-12.8-1.9-17c-3.2-2.5-6.9-3.6-10.9-3.7c-8.7-0.1-17.4,0-26.1,0
		c-0.6,0-0.7,0.2-0.7,0.7c0,8.3,0,16.6,0,24.9c0,8.6,0,17.2,0,25.9c0,0.6,0.2,0.7,0.8,0.7c7.4,0,14.8,0,22.2,0
		c1.8,0,3.6-0.1,5.4-0.2c3.8-0.3,7.3-1.6,10.3-4.1c2.5-2.1,4.2-4.7,4.7-8c0.2-1.3,0.2-2.7,0.1-4c-0.1-1.1-0.2-2.2-0.6-3.3
		c-1.5-4-4.3-6.7-8.5-8C248,41.1,247.8,40.9,247.4,40.7z M90.2,75.9c2.6-2.1,5.3-4.2,7.9-6.2c2.3-1.8,4.5-3.7,6.9-5.3
		c2.6-1.8,4.9-3.9,6.7-6.6c2.1-3.1,3.7-6.4,4.4-10c0.7-3.5,0.8-7,0-10.5c-1.3-6-4.1-11.1-8.9-15c-4.6-3.7-9.8-5.8-15.7-6.1
		c-3.8-0.2-7.6,0.5-11.1,1.9c-7.2,3-12.2,8.1-14.8,15.5c-1.2,3.3-1.8,6.7-1.5,10.2c0.1,1,0.1,2,0.3,3c0.5,3.4,1.7,6.6,3.6,9.6
		c1.3,2.1,2.7,4.2,4.7,5.8c2.7,2.1,5.4,4.2,8.1,6.4C83.9,70.9,87,73.4,90.2,75.9z M154.7,42.4c-0.1,2,0.1,3.9,0.6,5.8
		c1.5,6.2,4.7,11.4,9.8,15.4c3.4,2.6,6.7,5.2,10,7.8c1.8,1.4,3.6,2.8,5.3,4.3c0.2,0.2,0.4,0.3,0.7,0.1c2.7-2.2,5.5-4.4,8.2-6.6
		c1.8-1.4,3.4-2.9,5.3-4.1c3.2-2,5.8-4.6,7.9-7.7c2.4-3.5,4-7.2,4.4-11.5c0.3-2.8,0.3-5.6-0.3-8.4c-1.2-5.7-3.6-10.7-8.1-14.5
		c-6.6-5.7-14.1-8-22.7-6.4c-5.7,1-10.6,3.7-14.5,8C157,29.6,154.7,35.6,154.7,42.4z M56.2,33.2c0-5.7,0-11.3,0-17
		c0-0.7-0.1-0.8-0.7-0.5c-0.9,0.4-1.9,0.9-2.8,1.3c-0.7,0.3-0.8,0.7-0.8,1.4c0,10.9,0,21.8,0,32.7c0,2.8-0.6,5.4-2,7.9
		c-1.9,3.3-4.7,5.2-8.4,5.5c-2.5,0.2-5,0-7.4-0.8c-2-0.6-4-1.2-5.9-1.9c-0.4-0.1-0.6-0.1-0.7,0.4c-0.3,1-0.6,2.1-0.9,3.1
		c-0.1,0.4-0.1,0.6,0.4,0.8c2.9,1,5.9,2,9,2.5c2.8,0.4,5.6,0.5,8.4-0.2c2.6-0.7,5-1.7,6.9-3.6c2.3-2.3,3.7-5.1,4.4-8.3
		c0.6-2.8,0.7-5.6,0.7-8.4C56.2,43.1,56.2,38.2,56.2,33.2z M146.7,15.5c-0.3,0.1-0.4,0.1-0.6,0.2c-1,0.4-1.9,1-2.9,1.3
		c-0.6,0.2-0.8,0.5-0.8,1.2c0,10.5,0,21,0,31.5c0,2.2-0.2,4.3-0.8,6.4c-1,3.5-3,6.2-6.5,7.6c-2.7,1.1-5.6,1.2-8.4,0.5
		c-2.7-0.6-5.2-1.5-7.9-2.3c-0.8-0.2-0.8-0.3-1,0.5c-0.3,0.8-0.5,1.6-0.8,2.4c-0.4,1.1-0.4,1.1,0.7,1.5c3.4,1.2,6.9,2.2,10.5,2.5
		c3.2,0.3,6.4-0.1,9.4-1.4c2.9-1.2,4.9-3.5,6.5-6.1c1.9-3.1,2.4-6.6,2.4-10.1c0-11.6,0-23.3,0-34.9
		C146.7,16.1,146.7,15.9,146.7,15.5z M235,92.6L235,92.6c1.5,0,3,0,4.5,0c0.4,0,0.6-0.1,0.6-0.6c0-3,0-6,0-9c0-0.5-0.2-0.7-0.7-0.7
		c-3,0-6,0-9,0c-0.5,0-0.6,0.2-0.6,0.6c0,3,0,6,0,9c0,0.5,0.2,0.6,0.6,0.6C232,92.6,233.5,92.6,235,92.6z M246,87.5c0,1.5,0,3,0,4.6
		c0,0.4,0.1,0.6,0.5,0.6c3,0,6.1,0,9.1,0c0.4,0,0.6-0.2,0.6-0.6c0-3,0-5.9,0-8.9c0-0.5-0.1-0.7-0.7-0.7c-3,0-6,0-9,0
		c-0.5,0-0.6,0.1-0.6,0.6C246,84.5,246,86,246,87.5z M224,92.6c0-0.1,0.1-0.2,0.1-0.2c0-3.2,0-6.3,0-9.5c0-0.5-0.3-0.5-0.6-0.5
		c-3,0-6,0-9,0c-0.5,0-0.6,0.2-0.6,0.6c0,3,0,6,0,8.9c0,0.5,0.2,0.6,0.6,0.6C217.6,92.6,220.8,92.6,224,92.6z M35.1,87.9
		c0.4-0.3,0.7-0.5,1-0.7c1.6-1.5,1.4-4.9-1.3-5.7c-0.6-0.2-1.3-0.3-2-0.4c-1.6-0.1-3.2,0-4.8,0c-0.6,0-0.7,0.2-0.7,0.8
		c0,3.5,0,6.9,0,10.4c0,1.8-0.4,1.5,1.6,1.5c0.4,0,0.5-0.1,0.5-0.5c0-1.3,0-2.5,0-3.8c0-0.5,0.2-0.6,0.6-0.6c1,0,2.1,0,3.1,0
		s1.8,0.6,1.9,1.6c0.1,0.6,0.1,1.1,0,1.7c-0.1,1.9-0.2,1.5,1.5,1.6c0.4,0,0.5-0.2,0.5-0.5c0-0.8,0-1.7,0-2.5c0-1-0.4-1.7-1.3-2.3
		C35.6,88.3,35.4,88.1,35.1,87.9z M122.9,81c0,0-0.2,0-0.4,0c-3.9-0.1-7.1,3.9-6.1,7.9c0.8,3.1,3.5,5.1,6.9,4.9
		c2.9-0.1,5.1-1.9,5.9-4.7c0.1-0.4,0-0.6-0.4-0.6s-0.7,0-1.1,0c-0.2,0-0.5,0.2-0.5,0.4c-0.6,1.8-1.9,2.9-3.8,3.1
		c-1.9,0.2-3.7-0.9-4.6-2.6c-0.8-1.6-0.5-3.8,0.7-5.1c1-1.1,2.3-1.6,3.8-1.5c1.7,0.1,3,0.9,3.6,2.4c0.4,0.9,0.8,1.1,1.6,1
		c0.1,0,0.2,0,0.2,0c0.5,0,0.6-0.1,0.4-0.6C128.7,83.5,126.6,80.9,122.9,81z M92,86.3c-0.3-0.2-0.5-0.4-0.7-0.6
		c-1-1-2.3-1.2-3.6-0.8c-1.3,0.5-2.1,1.4-2.2,2.8c-0.1,1.6-0.1,3.2-0.1,4.8c0,1.3-0.2,1.2,1.2,1.2c0.5,0,0.7-0.2,0.7-0.7
		c0-1.7,0-3.3,0-5c0-1.1,1-2,2-2s1.8,0.9,1.8,2c0,1.5,0,2.9,0,4.4c0,1.4-0.2,1.2,1.2,1.2c0.6,0,0.7-0.2,0.7-0.7c0-1.7,0-3.4,0-5
		c-0.1-1.2,1-1.9,1.9-1.9c1,0,1.8,0.9,1.8,1.9c0,1.5,0,3,0,4.5c0,1.4-0.2,1.2,1.3,1.3c0.4,0,0.6-0.1,0.6-0.6c0-1.6,0-3.3,0-4.9
		c0-0.8-0.2-1.5-0.6-2.1C96.2,84.1,93.6,84.1,92,86.3z M138.4,92.7c0,0.3,0,0.5,0.1,0.6c0.1,0.2,0.3,0.4,0.4,0.4
		c0.5-0.1,1,0.3,1.4-0.2v-0.1c0-1.6,0.1-3.1,0-4.7c-0.3-2.7-3-4.6-5.6-4s-4.3,3.3-3.7,5.9c0.8,3,4.4,4.3,6.9,2.5
		C138,93,138.2,92.9,138.4,92.7z M57.4,92.8c0,1,0,1,0.9,1c0.1,0,0.3,0,0.4,0c0.5,0.1,0.7-0.1,0.7-0.7c-0.1-1.3-0.1-2.5-0.1-3.8
		c-0.1-2-1.3-3.7-3.1-4.4c-1.9-0.6-3.9-0.1-5.2,1.4c-1.4,1.6-1.5,4.5-0.2,6c1.7,1.9,4.1,2.1,6.1,0.7C57,92.9,57.1,92.9,57.4,92.8z
		 M48.2,90.5c-0.5,0-0.9,0-1.3,0c-0.2,0-0.6,0.2-0.6,0.4c-0.8,1.7-3.4,2-4.7,0.7c-0.4-0.4-0.7-1-0.8-1.7c0.3,0,0.5,0,0.7,0
		c1.9,0,3.8,0,5.7,0c1.4,0,1.4,0,1.2-1.4c-0.2-2.3-2.6-4.3-5.4-3.8c-2.7,0.5-4.3,3.1-3.6,5.7c0.5,1.9,2.1,3.3,3.9,3.4
		c2.2,0.2,4-0.9,4.9-2.8C48.1,90.9,48.1,90.8,48.2,90.5z M109.7,90.5c-0.5,0-0.9,0-1.3,0s-0.6,0.1-0.8,0.5c-0.5,1.1-1.5,1.5-2.6,1.5
		c-1.2,0-2.2-0.6-2.7-1.8c-0.3-0.6-0.2-0.7,0.4-0.7c2.1,0,4.3,0,6.4,0c0.5,0,0.7-0.2,0.7-0.7c0-0.3-0.1-0.7-0.1-1
		c-0.4-1.8-2.1-3.4-4-3.5c-2.1-0.2-4,0.9-4.8,2.8c-1.4,3.4,1.3,6.9,4.9,6.4C107.6,93.6,109.3,92.2,109.7,90.5z M168,89.3
		c0-2.7-1.9-4.7-4.7-4.7c-2.7,0-4.9,2.1-4.8,4.7c0,2.9,2.1,4.8,4.8,4.8C165.9,94.3,168,92,168,89.3z M169.5,89.4
		c0,2.6,2,4.7,4.6,4.8c2.9,0,4.9-2.1,4.9-4.9c0-2.6-2-4.6-4.6-4.7C171.7,84.6,169.5,86.7,169.5,89.4z M73.8,88.3c0,1.4,0,2.9,0,4.3
		c0,1.3-0.2,1.2,1.2,1.2c0.8,0,0.8,0,0.8-0.8c0-3.2,0-6.3,0-9.5c0-0.4,0.1-0.6,0.6-0.6c0.7,0,1.5,0,2.3,0c1.2,0,1.1,0.1,1.1-1.1
		c0-0.5-0.1-0.6-0.6-0.6c-2.6,0-5.3,0-7.9,0c-1.5,0-1.2,0-1.2,1.3c0,0.4,0.1,0.5,0.5,0.5c0.8,0,1.7,0,2.5,0s0.8,0,0.8,0.8
		C73.8,85.2,73.8,86.7,73.8,88.3z M191.3,90.7c0-0.8,0-1.7,0-2.5c0-0.7,0.3-1.3,0.9-1.6c0.8-0.5,1.5-0.6,2.4-0.1
		c0.8,0.4,1.1,1.1,1.1,2c0,1.6,0,3.1,0,4.7c0,0.2,0.2,0.5,0.3,0.5c0.5,0,1.1-0.1,1.6-0.2c0,0,0-0.1,0-0.2c-0.1-1.8,0-3.7-0.3-5.5
		c-0.3-2-2.3-3.3-4.4-3.1c-2,0.2-3.6,2-3.6,4c0,1.3,0,2.5,0,3.8c0,1.5-0.3,1.3,1.3,1.3c0.4,0,0.6-0.2,0.6-0.6
		C191.3,92.4,191.3,91.6,191.3,90.7z M61.4,87.4c0,1.7,0,3.5,0,5.2c0,1.3-0.2,1.1,1.1,1.1c0.7,0,0.7,0,0.7-0.8c0-3.6,0-7.2,0-10.7
		c0-1.1,0-1.1-1.2-1.1c0,0,0,0-0.1,0c-0.5-0.1-0.7,0.2-0.7,0.7C61.4,83.7,61.4,85.5,61.4,87.4z M182.8,87.5c0-1.8,0-3.5,0-5.3
		c0-1.1,0-1.1-1.1-1.1c-0.7,0-0.8,0-0.8,0.8c0,3.5,0,7.1,0,10.6c0,1.4-0.1,1.2,1.2,1.2c0.5,0,0.6-0.2,0.6-0.7
		C182.8,91.2,182.8,89.4,182.8,87.5z M142.5,90.7C142.5,90.7,142.4,90.7,142.5,90.7c-0.1,0.6-0.1,1.2-0.1,1.9c0,1.4-0.2,1.2,1.2,1.2
		c0.5,0,0.7-0.2,0.6-0.7c0-1.6,0-3.2,0-4.7c0-1.1,0.5-1.8,1.6-2c0.6-0.1,0.7-0.3,0.6-1.1c-0.1-0.6-0.5-0.5-0.9-0.4
		c-0.3,0.1-0.6,0.1-0.9,0.2c-1.3,0.4-2.1,1.2-2.2,2.6C142.4,88.7,142.5,89.7,142.5,90.7z M185.2,89.2c0,1.1,0,2.2,0,3.4
		c0,1.3-0.2,1.1,1.2,1.2c0.5,0,0.7-0.2,0.7-0.7c0-2.3,0-4.7,0-7c0-1.5,0.3-1.2-1.3-1.3c-0.4,0-0.5,0.1-0.5,0.5
		C185.2,86.6,185.2,87.9,185.2,89.2z M83.1,89.3c0-1.1,0-2.2,0-3.3c0-1.2,0-1.2-1.2-1.2c-0.5,0-0.7,0.1-0.7,0.7c0,2.3,0,4.7,0,7
		c0,1.3-0.3,1.2,1.3,1.2c0.5,0,0.6-0.2,0.6-0.6C83,91.8,83.1,90.6,83.1,89.3z M83.3,82.3c0-0.6-0.5-1.1-1.1-1c-0.6,0-1,0.6-1,1.1
		s0.5,1,1.1,1C82.8,83.4,83.3,82.9,83.3,82.3z M185.2,82.4c0,0.6,0.5,1.1,1,1.1c0.6,0,1-0.5,1-1.1s-0.5-1-1.1-1
		C185.6,81.3,185.2,81.7,185.2,82.4z"/>
	<path class="st0" d="M201.3,96.4c-0.4-0.6-0.8-1.2-1.2-1.9c-0.3-0.5-0.2-0.6,0.4-0.6c0.7,0,1.2,0.1,1.5,0.8c0.2,0.5,0.7,0.8,1,1.1
		c-0.1,0-0.3,0.1-0.5,0.2v0.1c1.1,0,2.1,0,3.3,0c-0.1-0.2-0.2-0.3-0.3-0.4c1.3-0.9,1.8-2,1.4-3.5c-0.2,0.1-0.4,0.2-0.6,0.4
		c-2.2,1.6-6,0.7-6.8-2.5c-0.7-2.6,1.4-5.4,4.1-5.6c2.9-0.2,5.3,1.9,5.3,4.8c0,1.2,0,2.4,0,3.6c0,1.1-0.4,2.1-1.2,3
		c-0.1,0.1-0.1,0.2-0.2,0.3C205.4,96.4,203.3,96.4,201.3,96.4z M201.3,89.3c-0.2,1.4,1.1,2.9,2.9,2.9c1.5,0,2.8-1.3,2.8-2.9
		c0-1.6-1.3-3-2.8-3C202.5,86.3,201.2,87.6,201.3,89.3z"/>
	<path class="st0" d="M147.6,96.4c0-2.1-0.1-4.2-0.1-6.4c0-1.5,0.3-3,1.5-4.1c1.5-1.5,3.7-1.6,5.2-1c1.9,0.8,3,2.6,2.9,4.6
		c-0.1,1.8-0.9,3.2-2.5,3.9s-3.1,0.6-4.5-0.4c-0.1-0.1-0.3-0.2-0.5-0.3c0,1.3,0,2.5,0,3.7C148.9,96.4,148.2,96.4,147.6,96.4z
		 M149.5,89.5c-0.2,1.3,1.1,2.8,2.8,2.8c1.6,0,2.8-1.2,2.8-2.8s-1.4-3.1-2.9-3.1C150.6,86.5,149.4,88,149.5,89.5z"/>
	<path class="st2" d="M247.4,40.7c0.4,0.2,0.6,0.3,0.8,0.4c4.1,1.3,6.9,4,8.5,8c0.4,1,0.6,2.2,0.6,3.3c0.1,1.3,0.1,2.7-0.1,4
		c-0.5,3.3-2.2,5.9-4.7,8c-3,2.5-6.5,3.8-10.3,4.1c-1.8,0.1-3.6,0.2-5.4,0.2c-7.4,0-14.8,0-22.2,0c-0.6,0-0.8-0.1-0.8-0.7
		c0-8.6,0-17.2,0-25.9c0-8.3,0-16.6,0-24.9c0-0.6,0.1-0.7,0.7-0.7c8.7,0,17.4,0,26.1,0c4,0,7.7,1.1,10.9,3.7
		c5.2,4.2,6.1,11.9,1.9,17c-1.4,1.7-3.2,2.9-5.4,3.5C247.9,40.5,247.7,40.6,247.4,40.7z M230.3,64.1L230.3,64.1c3.2,0,6.5,0,9.7,0
		c3,0,5.7-0.8,8.2-2.5c2.7-1.9,4.3-4.4,4.5-7.8c0.1-2.9-1.1-5.3-3.3-7.3c-2.6-2.3-5.7-3.3-9-3.4c-7-0.1-14.1,0-21.1-0.1
		c-0.4,0-0.5,0.2-0.5,0.5c0,0.6,0.1,1.3,0.1,1.9c0,6,0,11.9,0,17.9c0,0.5,0.1,0.6,0.6,0.6C223.1,64.1,226.7,64.1,230.3,64.1z
		 M218.9,20.9c0,0.1,0,0.2,0,0.3c0,5.7,0,11.3,0,17c0,0.4,0.2,0.5,0.5,0.5c7.1,0,14.2,0,21.3,0c1.8,0,3.6-0.4,5.3-1.3
		c1.9-1,3.6-2.3,4.5-4.3c1.4-3.2,0.8-6.1-1.6-8.6c-2.3-2.4-5.3-3.4-8.5-3.5c-7-0.1-14,0-21,0C219.2,20.8,219.1,20.8,218.9,20.9z"/>
	<path class="st3" d="M90.2,75.9c-3.2-2.5-6.3-5-9.4-7.5c-2.7-2.1-5.4-4.2-8.1-6.4c-2-1.6-3.4-3.7-4.7-5.8c-1.9-2.9-3-6.1-3.6-9.6
		c-0.2-1-0.2-2-0.3-3c-0.3-3.5,0.3-6.9,1.5-10.2c2.7-7.3,7.7-12.4,14.8-15.5c3.6-1.5,7.3-2.1,11.1-1.9c5.9,0.3,11.1,2.4,15.7,6.1
		c4.8,3.9,7.6,9,8.9,15c0.7,3.5,0.7,7,0,10.5c-0.7,3.7-2.3,6.9-4.4,10c-1.8,2.7-4.1,4.8-6.7,6.6c-2.4,1.6-4.6,3.5-6.9,5.3
		C95.4,71.8,92.8,73.8,90.2,75.9z M112.3,42.3c0.2-11.6-9.9-21.3-21.2-21.8c-13-0.5-22.9,10.1-22.9,21.9c0,11.4,9.4,21.9,21.8,22.1
		C102.2,64.7,112.7,54.3,112.3,42.3z"/>
	<path class="st4" d="M154.7,42.4c0-6.8,2.3-12.8,6.9-17.9c3.9-4.3,8.8-7,14.5-8c8.6-1.6,16.1,0.7,22.7,6.4
		c4.5,3.9,6.9,8.8,8.1,14.5c0.6,2.8,0.5,5.6,0.3,8.4c-0.4,4.2-2.1,8-4.4,11.5c-2.1,3.1-4.7,5.7-7.9,7.7c-1.9,1.2-3.6,2.7-5.3,4.1
		c-2.7,2.2-5.5,4.4-8.2,6.6c-0.3,0.2-0.5,0.1-0.7-0.1c-1.8-1.4-3.5-2.8-5.3-4.3c-3.3-2.6-6.7-5.2-10-7.8c-5.1-3.9-8.3-9.1-9.8-15.4
		C154.8,46.3,154.6,44.4,154.7,42.4z M158.9,43.1c0.1,0.8,0.1,2.1,0.3,3.4c1,4.9,3.3,9,7,12.3c3.9,3.5,8.6,5.4,13.8,5.7
		c2.5,0.1,4.9-0.2,7.3-1c4.5-1.5,8.3-3.9,11.1-7.8c1.7-2.3,3.1-4.7,4-7.4c0.7-2.1,1-4.3,0.9-6.5c-0.1-1.9-0.7-3.7-1.3-5.5
		c-0.7-1.7-1.3-3.5-2.2-5c-1.6-2.7-3.7-4.9-6.3-6.7c-3.4-2.3-7.1-3.7-11.3-3.9c-2.6-0.2-5.1,0.2-7.6,0.9c-4.6,1.4-8.4,4-11.4,7.8
		C160.3,33.2,159,37.7,158.9,43.1z"/>
	<path class="st3" d="M56.2,33.2c0,5,0,9.9,0,14.9c0,2.8-0.1,5.7-0.7,8.4c-0.7,3.2-2.1,6-4.4,8.3c-1.9,1.9-4.3,2.9-6.9,3.6
		c-2.8,0.7-5.6,0.6-8.4,0.2c-3.1-0.4-6.1-1.4-9-2.5c-0.4-0.2-0.5-0.3-0.4-0.8c0.3-1,0.7-2,0.9-3.1c0.1-0.5,0.3-0.5,0.7-0.4
		c2,0.6,4,1.3,5.9,1.9c2.4,0.7,4.9,1,7.4,0.8c3.7-0.4,6.6-2.2,8.4-5.5c1.4-2.4,2-5.1,2-7.9c0-10.9,0-21.8,0-32.7
		c0-0.7,0.2-1.1,0.8-1.4c1-0.4,1.9-0.8,2.8-1.3c0.6-0.3,0.7-0.2,0.7,0.5C56.2,21.9,56.2,27.6,56.2,33.2z"/>
	<path class="st4" d="M146.7,15.5c0,0.4,0,0.6,0,0.9c0,11.6,0,23.3,0,34.9c0,3.5-0.5,7-2.4,10.1c-1.6,2.6-3.6,4.8-6.5,6.1
		c-3,1.3-6.2,1.6-9.4,1.4c-3.6-0.3-7.1-1.3-10.5-2.5c-1.1-0.4-1.1-0.4-0.7-1.5c0.3-0.8,0.5-1.6,0.8-2.4c0.3-0.8,0.3-0.8,1-0.5
		c2.6,0.8,5.2,1.7,7.9,2.3c2.8,0.6,5.7,0.6,8.4-0.5c3.5-1.4,5.4-4.1,6.5-7.6c0.6-2.1,0.8-4.2,0.8-6.4c0-10.5,0-21,0-31.5
		c0-0.6,0.2-1,0.8-1.2c1-0.4,2-0.9,2.9-1.3C146.3,15.6,146.4,15.6,146.7,15.5z"/>
	<path class="st4" d="M235,92.6c-1.5,0-3,0-4.5,0c-0.5,0-0.7-0.1-0.6-0.6c0-3,0-6,0-9c0-0.4,0.1-0.6,0.6-0.6c3,0,6,0,9,0
		c0.5,0,0.7,0.2,0.7,0.7c0,3,0,6,0,9c0,0.5-0.2,0.6-0.6,0.6C238,92.6,236.5,92.6,235,92.6L235,92.6z"/>
	<path class="st2" d="M246,87.5c0-1.5,0-3,0-4.5c0-0.5,0.2-0.6,0.6-0.6c3,0,6,0,9,0c0.5,0,0.7,0.2,0.7,0.7c0,3,0,5.9,0,8.9
		c0,0.5-0.2,0.6-0.6,0.6c-3,0-6.1,0-9.1,0c-0.4,0-0.5-0.2-0.5-0.6C246,90.5,246,89,246,87.5z"/>
	<path class="st3" d="M224,92.6c-3.2,0-6.3,0-9.5,0c-0.5,0-0.6-0.1-0.6-0.6c0-3,0-6,0-8.9c0-0.5,0.1-0.6,0.6-0.6c3,0,6,0,9,0
		c0.3,0,0.6,0,0.6,0.5c0,3.2,0,6.3,0,9.5C224,92.4,224,92.5,224,92.6z"/>
	<path class="st0" d="M122.9,81c3.7-0.2,5.8,2.4,6.4,4.6c0.1,0.5,0,0.6-0.4,0.6c-0.1,0-0.2,0-0.2,0c-0.8,0.1-1.2-0.1-1.6-1
		c-0.6-1.5-1.9-2.3-3.6-2.4c-1.5-0.1-2.8,0.4-3.8,1.5c-1.2,1.3-1.5,3.5-0.7,5.1c0.9,1.8,2.7,2.8,4.6,2.6c2-0.2,3.2-1.2,3.8-3.1
		c0.1-0.2,0.3-0.4,0.5-0.4c0.4-0.1,0.7,0,1.1,0s0.5,0.2,0.4,0.6c-0.8,2.8-3,4.6-5.9,4.7c-3.4,0.2-6.2-1.9-6.9-4.9
		c-1-4,2.2-8,6.1-7.9C122.7,81,122.9,81,122.9,81z"/>
	<path class="st0" d="M92,86.3c1.6-2.1,4.3-2.1,5.8-0.1c0.5,0.6,0.6,1.4,0.6,2.1c0,1.6,0,3.3,0,4.9c0,0.4-0.2,0.6-0.6,0.6
		c-1.5,0-1.3,0.2-1.3-1.3s0-3,0-4.5c0-1-0.8-1.9-1.8-1.9c-0.9,0-2,0.7-1.9,1.9c0.1,1.7,0,3.4,0,5c0,0.5-0.1,0.8-0.7,0.7
		c-1.4-0.1-1.2,0.1-1.2-1.2c0-1.5,0-2.9,0-4.4c0-1.1-0.8-2-1.8-2s-2,0.9-2,2c0,1.7,0,3.3,0,5c0,0.5-0.1,0.7-0.7,0.7
		c-1.4,0-1.2,0.1-1.2-1.2c0-1.6,0-3.2,0.1-4.8c0.1-1.4,1-2.4,2.2-2.8c1.3-0.5,2.5-0.2,3.6,0.8C91.5,85.8,91.7,86,92,86.3z"/>
	<path class="st0" d="M138.4,92.7c-0.2,0.1-0.4,0.2-0.5,0.3c-2.5,1.8-6.1,0.5-6.9-2.5c-0.7-2.6,1-5.3,3.7-5.9c2.6-0.6,5.3,1.3,5.6,4
		c0.2,1.5,0,3.1,0,4.7v0.1c-0.4,0.5-1,0.2-1.4,0.2c-0.1,0-0.3-0.2-0.4-0.4C138.4,93.2,138.5,93,138.4,92.7z M132.8,89.5
		c0,1.6,1.2,2.8,2.8,2.8c1.7,0,2.8-1.2,2.9-2.8c0.1-1.7-1.4-3-2.9-3C134,86.5,132.7,87.9,132.8,89.5z"/>
	<path class="st0" d="M57.4,92.8c-0.2,0.1-0.4,0.1-0.5,0.2c-2.1,1.5-4.5,1.2-6.1-0.7c-1.4-1.5-1.3-4.4,0.2-6c1.3-1.5,3.3-2,5.2-1.4
		c1.8,0.6,3.1,2.4,3.1,4.4c0,1.3,0.1,2.5,0.1,3.8c0,0.6-0.2,0.7-0.7,0.7c-0.1,0-0.3,0-0.4,0C57.4,93.7,57.4,93.7,57.4,92.8z
		 M54.5,92.3c1.6,0,2.9-1.3,2.9-2.8c0-2-1.8-3-2.9-3c-1.5,0-2.9,1.4-2.9,2.9C51.6,91,52.9,92.3,54.5,92.3z"/>
	<path class="st0" d="M48.2,90.5c-0.1,0.3-0.1,0.5-0.2,0.6c-0.8,1.9-2.7,2.9-4.9,2.8c-1.8-0.1-3.4-1.6-3.9-3.4
		c-0.7-2.6,0.9-5.2,3.6-5.7c2.8-0.5,5.2,1.5,5.4,3.8C48.4,90,48.4,90,47,90c-1.9,0-3.8,0-5.7,0c-0.2,0-0.4,0-0.7,0
		c0,0.7,0.3,1.2,0.8,1.7c1.3,1.3,3.9,1,4.7-0.7c0.1-0.2,0.4-0.4,0.6-0.4C47.2,90.4,47.6,90.5,48.2,90.5z M46.5,88.4
		c0-0.1,0-0.3,0-0.4c-0.3-1-1.4-1.7-2.5-1.8c-1.8-0.1-2.7,0.8-3.1,1.7c-0.2,0.4,0,0.5,0.4,0.5c1.6,0,3.2,0,4.8,0
		C46.1,88.4,46.3,88.4,46.5,88.4z"/>
	<path class="st0" d="M109.7,90.5c-0.3,1.7-2,3.2-3.8,3.4c-3.6,0.4-6.3-3-4.9-6.4c0.7-1.8,2.7-2.9,4.8-2.8c1.9,0.2,3.6,1.7,4,3.5
		c0.1,0.3,0.1,0.7,0.1,1c0,0.5-0.2,0.7-0.7,0.7c-2.1,0-4.3,0-6.4,0c-0.6,0-0.7,0.1-0.4,0.7c0.5,1.1,1.4,1.8,2.7,1.8
		c1.1,0,2.1-0.4,2.6-1.5c0.2-0.3,0.4-0.5,0.8-0.5C108.8,90.5,109.2,90.5,109.7,90.5z M108,88.4c0-0.2,0-0.3-0.1-0.3
		c-0.6-1.6-2.7-2.4-4.2-1.6c-0.6,0.3-1,0.9-1.4,1.4c-0.2,0.3-0.1,0.6,0.3,0.6c1.5,0,3.1,0,4.6,0C107.5,88.4,107.7,88.4,108,88.4z"/>
	<path class="st0" d="M168,89.3c0,2.7-2.1,4.9-4.7,4.9c-2.6-0.1-4.7-1.9-4.8-4.8c0-2.6,2.1-4.7,4.8-4.7
		C166.1,84.7,168,86.6,168,89.3z M163.3,86.2c-1.6,0-2.9,1.3-2.9,2.8c0,1.7,1.3,3,3,3c1.5,0,2.9-1.4,2.9-2.9S164.8,86.2,163.3,86.2z
		"/>
	<path class="st0" d="M169.5,89.4c0-2.7,2.2-4.8,4.9-4.7c2.6,0,4.6,2,4.6,4.7c0,2.8-2,4.9-4.9,4.9C171.4,94.1,169.4,91.9,169.5,89.4
		z M177.1,89.1c0-1.7-1.3-2.9-3-2.9c-1.6,0-2.9,1.4-2.8,3c0,1.5,1.4,2.9,2.9,2.9C175.8,92,177.1,90.7,177.1,89.1z"/>
	<path class="st0" d="M73.8,88.3c0-1.5,0-3.1,0-4.6c0-0.8,0-0.8-0.8-0.8s-1.7,0-2.5,0c-0.4,0-0.5-0.1-0.5-0.5
		c0.1-1.2-0.3-1.3,1.2-1.3c2.6,0,5.3,0,7.9,0c0.5,0,0.6,0.2,0.6,0.6c0,1.3,0.1,1.1-1.1,1.1c-0.8,0-1.5,0-2.3,0
		c-0.5,0-0.6,0.2-0.6,0.6c0,3.2,0,6.3,0,9.5c0,0.8,0,0.8-0.8,0.8c-1.4,0-1.2,0.1-1.2-1.2C73.8,91.1,73.8,89.7,73.8,88.3z"/>
	<path class="st0" d="M191.3,90.7c0,0.8,0,1.6,0,2.4c0,0.4-0.1,0.6-0.6,0.6c-1.6,0-1.3,0.2-1.3-1.3c0-1.3,0-2.5,0-3.8
		c0-2,1.6-3.8,3.6-4c2.1-0.2,4.1,1.1,4.4,3.1c0.2,1.8,0.2,3.7,0.3,5.5c0,0.1,0,0.2,0,0.2c-0.5,0.1-1.1,0.2-1.6,0.2
		c-0.1,0-0.3-0.3-0.3-0.5c0-1.6,0-3.1,0-4.7c0-0.9-0.3-1.6-1.1-2s-1.6-0.3-2.4,0.1c-0.6,0.4-0.9,0.9-0.9,1.6
		C191.3,89.1,191.3,89.9,191.3,90.7z"/>
	<path class="st0" d="M61.4,87.4c0-1.9,0-3.7,0-5.6c0-0.5,0.1-0.8,0.7-0.7c0,0,0,0,0.1,0c1.2,0,1.2,0,1.2,1.1c0,3.6,0,7.2,0,10.7
		c0,0.8,0,0.8-0.7,0.8c-1.3,0-1.1,0.1-1.1-1.1C61.4,90.9,61.4,89.1,61.4,87.4z"/>
	<path class="st0" d="M182.8,87.5c0,1.9,0,3.7,0,5.6c0,0.5-0.1,0.7-0.6,0.7c-1.4-0.1-1.2,0.2-1.2-1.2c0-3.5,0-7.1,0-10.6
		c0-0.8,0-0.8,0.8-0.8c1.1,0,1.1,0,1.1,1.1C182.8,84,182.8,85.8,182.8,87.5z"/>
	<path class="st0" d="M142.5,90.7c0-1-0.1-2,0-3c0.1-1.4,0.9-2.2,2.2-2.6c0.3-0.1,0.6-0.2,0.9-0.2c0.4-0.1,0.8-0.2,0.9,0.4
		c0.1,0.7,0,0.9-0.6,1.1c-1.1,0.2-1.6,0.9-1.6,2c0,1.6,0,3.2,0,4.7c0,0.5-0.1,0.7-0.6,0.7c-1.4,0-1.2,0.2-1.2-1.2
		C142.4,91.9,142.4,91.3,142.5,90.7C142.4,90.7,142.5,90.7,142.5,90.7z"/>
	<path class="st0" d="M185.2,89.2c0-1.3,0-2.6,0-3.9c0-0.4,0.1-0.5,0.5-0.5c1.6,0,1.3-0.2,1.3,1.3c0,2.3,0,4.7,0,7
		c0,0.5-0.1,0.7-0.7,0.7c-1.4,0-1.2,0.1-1.2-1.2C185.2,91.4,185.2,90.3,185.2,89.2z"/>
	<path class="st0" d="M83.1,89.3c0,1.3,0,2.5,0,3.8c0,0.5-0.1,0.7-0.6,0.6c-1.5,0-1.3,0.1-1.3-1.2c0-2.3,0-4.7,0-7
		c0-0.5,0.2-0.7,0.7-0.7c1.2,0,1.2,0,1.2,1.2C83.1,87.1,83.1,88.2,83.1,89.3z"/>
	<path class="st0" d="M83.3,82.3c0,0.6-0.5,1.1-1,1.1c-0.6,0-1-0.4-1.1-1c0-0.6,0.4-1.1,1-1.1S83.3,81.7,83.3,82.3z"/>
	<path class="st0" d="M185.2,82.4c0-0.6,0.4-1,1-1s1.1,0.4,1.1,1s-0.5,1.1-1,1.1C185.7,83.5,185.2,83,185.2,82.4z"/>
	<path class="st1" d="M201.3,89.3c-0.1-1.6,1.2-2.9,2.8-3c1.5,0,2.8,1.4,2.8,3s-1.3,2.9-2.8,2.9C202.5,92.1,201.1,90.6,201.3,89.3z"
		/>
	<path class="st1" d="M149.5,89.5c-0.1-1.6,1.1-3,2.8-3.1c1.5-0.1,2.9,1.4,2.9,3.1c0,1.6-1.2,2.8-2.8,2.8
		C150.6,92.4,149.3,90.8,149.5,89.5z"/>
	<path class="st1" d="M230.3,64.1c-3.6,0-7.2,0-10.8,0c-0.5,0-0.6-0.1-0.6-0.6c0-6,0-11.9,0-17.9c0-0.6,0-1.3-0.1-1.9
		c0-0.4,0.1-0.5,0.5-0.5c7,0,14.1-0.1,21.1,0.1c3.3,0.1,6.4,1.1,9,3.4c2.2,1.9,3.4,4.3,3.3,7.3c-0.1,3.3-1.7,5.9-4.5,7.8
		c-2.5,1.7-5.2,2.5-8.2,2.5C236.8,64.1,233.5,64.1,230.3,64.1L230.3,64.1z"/>
	<path class="st1" d="M218.9,20.9c0.2,0,0.4,0,0.6,0c7,0,14-0.1,21,0c3.2,0.1,6.2,1.1,8.5,3.5c2.4,2.5,2.9,5.5,1.6,8.6
		c-0.9,2-2.6,3.3-4.5,4.3c-1.6,0.9-3.4,1.3-5.3,1.3c-7.1,0-14.2,0-21.3,0c-0.3,0-0.5,0-0.5-0.5c0-5.7,0-11.3,0-17
		C218.8,21.1,218.8,21,218.9,20.9z"/>
	<path class="st1" d="M112.3,42.3c0.4,11.9-10.1,22.4-22.3,22.2c-12.4-0.2-21.9-10.7-21.8-22.1c0-11.8,9.9-22.4,22.9-21.9
		C102.5,21,112.5,30.8,112.3,42.3z M83.7,36.1c0.1,0.4,0.2,1.1,0.4,1.8c0.9,2.9,4.2,3.9,6.4,2c2.2-1.9,2.8-5.2,1.4-7.8
		c-1.3-2.2-3.9-2.8-5.9-1.3C84.4,32.1,83.8,33.8,83.7,36.1z M100.3,54.2v-0.1c-0.2,0-0.4,0.1-0.6,0.1c-2.3,0.6-4.5,0.8-6.7-0.1
		c-2-0.7-3.7-1.9-5.1-3.4c-0.6-0.7-1.1-1.5-1.6-2.2c-0.3-0.4-0.2-0.6,0.3-0.6c0.7,0,1.3-0.1,2-0.1c2.2-0.1,4.5-0.1,6.7-0.2
		c2.3-0.1,4.7-0.2,7-0.2c0.6,0,1.2-0.1,1.7-0.1c-1.4-0.2-2.8-0.3-4.2-0.3c-3.7-0.1-7.4-0.3-11.1-0.4c-1.3,0-2.7-0.1-4-0.1
		c-0.3,0-0.5,0.1-0.4,0.4c0,0.5,0,1,0.1,1.5c0.5,2,1.7,3.7,3.2,5c2.3,2,5,3,8.1,2.7C97.4,55.8,98.9,55.2,100.3,54.2z M105.6,37.5
		c-0.1-0.7-0.1-1.4-0.2-2c-0.3-1.7-0.9-3.4-2.1-4.7c-0.5-0.5-1-0.8-1.7-0.7c-0.7,0.2-0.8,0.8-0.9,1.3c-0.4,2.3,0,4.5,1,6.6
		c0.3,0.7,0.8,1.3,1.3,1.9c1,1,2.1,0.8,2.5-0.6C105.5,38.7,105.5,38.1,105.6,37.5z"/>
	<path class="st1" d="M158.9,43.1c0.1-5.4,1.3-9.9,4.4-13.8c2.9-3.8,6.7-6.4,11.4-7.8c2.5-0.7,5-1.1,7.6-0.9
		c4.1,0.3,7.9,1.6,11.3,3.9c2.6,1.8,4.7,4.1,6.3,6.7c0.9,1.5,1.6,3.3,2.2,5c0.7,1.8,1.2,3.6,1.3,5.5c0.1,2.2-0.1,4.4-0.9,6.5
		c-0.9,2.7-2.4,5.1-4,7.4c-2.8,3.9-6.7,6.3-11.1,7.8c-2.4,0.8-4.8,1.2-7.3,1c-5.3-0.3-9.9-2.2-13.8-5.7c-3.7-3.3-6-7.5-7-12.3
		C159,45.2,159,43.9,158.9,43.1z M174.3,35.7c0,1.3,0.3,2.5,1.1,3.5c1.4,1.9,3.8,2.4,5.8,0.7c2.4-2,2.8-5.7,1-8.2
		c-1.3-1.7-3.6-2.2-5.4-0.9C175.1,32,174.3,33.7,174.3,35.7z M190.8,54.2c0-0.1,0-0.1,0-0.2c-0.4,0.1-0.8,0.2-1.3,0.3
		c-1.5,0.3-3,0.5-4.5,0.1c-2.5-0.6-4.6-1.8-6.4-3.5c-0.7-0.7-1.3-1.7-1.9-2.5c-0.2-0.3-0.1-0.5,0.3-0.5c0.6,0,1.1-0.1,1.7-0.1
		c1.9-0.1,3.9-0.1,5.8-0.1c0.2,0,0.4,0,0.6,0c2.9-0.1,5.8-0.2,8.7-0.3c0.3,0,0.5,0,0.8-0.1c0-0.1,0-0.1,0-0.2
		c-6.6-0.2-13.2-0.5-19.9-0.7c0.4,4.2,2.6,7,6.1,8.7C184.3,56.6,187.7,56.5,190.8,54.2z M196.3,38c-0.1-2.1-0.4-3.8-1.2-5.4
		c-0.4-0.8-0.9-1.5-1.5-2.1c-0.8-0.8-1.8-0.5-2.2,0.5c-0.1,0.2-0.2,0.5-0.2,0.7c-0.4,2.5,0.2,4.9,1.4,7c0.3,0.6,0.8,1.1,1.2,1.5
		c0.8,0.7,1.6,0.5,2-0.5C196.1,39.1,196.2,38.4,196.3,38z"/>
	<path class="st1" d="M132.8,89.5c-0.1-1.6,1.2-3,2.8-3c1.4,0,2.9,1.3,2.9,3c0,1.6-1.2,2.8-2.9,2.8C134,92.3,132.8,91.1,132.8,89.5z
		"/>
	<path class="st1" d="M54.5,92.3c-1.6,0-2.9-1.3-2.9-2.9c0-1.5,1.4-2.9,2.9-2.9c1.2,0,3,1,2.9,3C57.4,91,56.1,92.3,54.5,92.3z"/>
	<path class="st1" d="M46.5,88.4c-0.2,0-0.3,0-0.5,0c-1.6,0-3.2,0-4.8,0c-0.4,0-0.5-0.1-0.4-0.5c0.5-0.9,1.3-1.8,3.1-1.7
		C45,86.3,46,87,46.4,88C46.5,88.1,46.5,88.2,46.5,88.4z"/>
	<path class="st1" d="M108,88.4c-0.3,0-0.5,0.1-0.7,0.1c-1.5,0-3.1,0-4.6,0c-0.5,0-0.5-0.3-0.3-0.6c0.4-0.5,0.8-1.1,1.4-1.4
		c1.5-0.8,3.5,0,4.2,1.6C107.9,88.1,108,88.2,108,88.4z"/>
	<path class="st1" d="M163.3,86.2c1.6,0,3,1.4,3,2.9s-1.4,2.9-2.9,2.9c-1.7,0-3-1.3-3-3C160.4,87.5,161.7,86.2,163.3,86.2z"/>
	<path class="st1" d="M177.1,89.1c0,1.6-1.3,2.9-2.9,2.9c-1.5,0-2.9-1.4-2.9-2.9c0-1.6,1.3-2.9,2.8-3
		C175.8,86.2,177.1,87.5,177.1,89.1z"/>
	<path class="st3" d="M83.7,36.1c0.1-2.3,0.7-4,2.3-5.2c2.1-1.5,4.6-1,5.9,1.3c1.4,2.5,0.8,5.9-1.4,7.8c-2.2,1.8-5.5,0.8-6.4-2
		C83.9,37.2,83.8,36.5,83.7,36.1z"/>
	<path class="st3" d="M100.3,54.2c-1.4,1-2.9,1.7-4.6,1.8c-3.1,0.3-5.8-0.7-8.1-2.7c-1.5-1.4-2.7-3-3.2-5c-0.1-0.5-0.1-1-0.1-1.5
		c0-0.3,0.2-0.4,0.4-0.4c1.3,0,2.7,0.1,4,0.1c3.7,0.1,7.4,0.3,11.1,0.4c1.4,0.1,2.8,0.1,4.2,0.3c-0.6,0-1.1,0.1-1.7,0.1
		c-2.3,0.1-4.7,0.2-7,0.2c-2.2,0.1-4.5,0.1-6.7,0.2c-0.7,0-1.3,0.1-2,0.1c-0.5,0-0.6,0.2-0.3,0.6c0.5,0.8,1,1.6,1.6,2.2
		c1.4,1.5,3.1,2.7,5.1,3.4c2.2,0.8,4.5,0.7,6.7,0.1c0.2-0.1,0.4-0.1,0.6-0.1C100.3,54.1,100.3,54.1,100.3,54.2z"/>
	<path class="st3" d="M105.6,37.5c-0.1,0.5-0.1,1.2-0.2,1.8c-0.4,1.4-1.4,1.7-2.5,0.6c-0.5-0.5-1-1.2-1.3-1.9c-1-2.1-1.4-4.3-1-6.6
		c0.1-0.6,0.2-1.2,0.9-1.3c0.7-0.2,1.3,0.1,1.7,0.7c1.2,1.4,1.8,3,2.1,4.7C105.5,36.1,105.5,36.8,105.6,37.5z"/>
	<path class="st4" d="M174.3,35.7c0-2,0.8-3.7,2.4-4.9c1.7-1.3,4.1-0.8,5.4,0.9c1.8,2.5,1.4,6.2-1,8.2c-2,1.7-4.3,1.2-5.8-0.7
		C174.6,38.2,174.3,37,174.3,35.7z"/>
	<path class="st4" d="M190.8,54.2c-3.2,2.3-6.5,2.4-10,0.7c-3.6-1.7-5.8-4.5-6.1-8.7c6.7,0.2,13.3,0.5,19.9,0.7c0,0.1,0,0.1,0,0.2
		c-0.3,0-0.5,0.1-0.8,0.1c-2.9,0.1-5.8,0.2-8.7,0.3c-0.2,0-0.4,0-0.6,0c-1.9,0-3.9,0.1-5.8,0.1c-0.6,0-1.1,0.1-1.7,0.1
		c-0.4,0-0.5,0.2-0.3,0.5c0.6,0.9,1.2,1.8,1.9,2.5c1.8,1.8,3.9,3,6.4,3.5c1.5,0.3,3,0.2,4.5-0.1c0.4-0.1,0.8-0.2,1.3-0.3
		C190.8,54.1,190.8,54.2,190.8,54.2z"/>
	<path class="st4" d="M196.3,38c-0.1,0.4-0.2,1.1-0.4,1.7c-0.4,1-1.2,1.2-2,0.5c-0.5-0.4-0.9-0.9-1.2-1.5c-1.2-2.2-1.8-4.5-1.4-7
		c0-0.2,0.1-0.5,0.2-0.7c0.4-1,1.4-1.3,2.2-0.5c0.6,0.6,1.1,1.4,1.5,2.1C195.9,34.2,196.2,35.9,196.3,38z"/>
</g>
</svg>
