<?xml version="1.0" encoding="utf-8"?>
<!-- Generator: Adobe Illustrator 27.4.0, SVG Export Plug-In . SVG Version: 6.00 Build 0)  -->
<svg version="1.1" id="Livello_1" xmlns="http://www.w3.org/2000/svg" xmlns:xlink="http://www.w3.org/1999/xlink" x="0px" y="0px"
	 viewBox="0 0 710.3 167" style="enable-background:new 0 0 710.3 167;" xml:space="preserve">
<path d="M91.8,119.1c0,7,2.2,8,10.2,8c8.9,0,12.4-3.4,21.5-24.5h6.3l-2.6,30.6h-77v-4.7c8.2-0.3,8.9-1.2,8.9-8.3V51.3
	c0-7.1-0.7-8.2-8.9-8.5v-4.5h52.2v4.5c-9.1,0.3-10.5,1.3-10.5,8.5L91.8,119.1L91.8,119.1z"/>
<path d="M168,155.5c-30.2,0-41.2-15.5-41.2-38.8s10.9-39,41.2-39s41.2,15.5,41.2,39S198.2,155.5,168,155.5L168,155.5z M168,150.1
	c6.9,0,9.1-13.3,9.1-33.6s-2.2-32.7-9.1-32.7c-7.6,0-9.1,14.6-9.1,32.7C158.9,135.8,160.4,150.1,168,150.1z"/>
<path d="M238,134.9c-30.2,0-41.1-15.5-41.1-38.8s10.9-39,41.1-39s41.1,15.5,41.1,39S268.2,134.9,238,134.9z M238,129.5
	c6.9,0,9.1-13.3,9.1-33.6s-2.2-32.7-9.1-32.7c-7.6,0-9.1,14.6-9.1,32.7C229,115.2,230.4,129.5,238,129.5z"/>
<path d="M275.2,47.2c0-4.1-0.9-5.7-3.2-6.1l-4.1-0.6v-4.7l37.4-3.2l0.6,0.6v90.2c0,7.4,0.6,7.1,7.3,8.2v4.7H267v-4.7
	c7.4-0.4,8.3-0.7,8.3-8.2L275.2,47.2L275.2,47.2z M328.2,66.6c2.9-3.9,4.4-4.4,7.7-4.4h17.8v3.2l-13,4.1c-6.6,2-8.6,3.5-15,11.5
	c5.4,12.1,17.6,35.5,25.8,45.8c2.8,3.4,5,5.4,7,6.6l-0.1,3.2l-23-0.4c-11.4-0.1-16.2-5.2-18.7-9.3c-4.8-7.7-8.5-20.7-10.8-27.4v-0.7
	C311.7,89.7,322.6,74.5,328.2,66.6L328.2,66.6z"/>
<path d="M395.6,68.7c9.8-5.7,15.3-7.9,22.5-7.9c9,0,26,5,26,35.8c0,34.7-19.7,42-41.9,42c-9.2,0-16.8-2.2-22.8-5l-13.3,5l-1.2-0.9
	v-90c0-4.1-0.9-5.7-3.2-6.1l-4.1-0.6v-4.7l37.6-3.2l0.3,0.4L395.6,68.7L395.6,68.7z M395.6,121.5c0,8.3,2.9,11.7,7.3,11.7
	c6.3,0,9-11.4,9-31.2c0-11.8-1.6-30.1-10.4-30.1c-3.8,0-6,1.9-6,5.8L395.6,121.5L395.6,121.5z"/>
<path d="M470.8,153.2c-30.2,0-41.1-15.5-41.1-38.8s10.9-39,41.1-39s41.1,15.5,41.1,39S501,153.2,470.8,153.2z M470.8,147.8
	c6.9,0,9-13.3,9-33.6s-2.2-32.7-9-32.7c-7.6,0-9,14.6-9,32.7C461.7,133.5,463.2,147.8,470.8,147.8z"/>
<path d="M539.6,134.6c-30.2,0-41.1-15.5-41.1-38.8s10.9-39,41.1-39s41.2,15.5,41.2,39S569.8,134.6,539.6,134.6z M539.6,129.2
	c6.9,0,9-13.3,9-33.6s-2.2-32.7-9-32.7c-7.6,0-9,14.6-9,32.7C530.6,114.9,532,129.2,539.6,129.2z"/>
<path d="M576.9,58.2c0-4.1-0.9-5.7-3.2-6.1l-4.1-0.6v-4.7l37.3-3.2l0.6,0.6v90.2c0,7.4,0.6,7.1,7.3,8.2v4.7h-46.2v-4.7
	c7.4-0.4,8.3-0.7,8.3-8.2L576.9,58.2L576.9,58.2z M629.9,77.7c2.9-3.9,4.4-4.4,7.7-4.4h17.8v3.2l-13,4.1c-6.6,2-8.6,3.5-15,11.5
	c5.4,12.1,17.7,35.5,25.8,45.8c2.8,3.4,5,5.4,7,6.6l-0.2,3.2l-23-0.4c-11.4-0.1-16.2-5.2-18.7-9.3c-4.8-7.7-8.5-20.7-10.8-27.4v-0.7
	C613.4,100.7,624.3,85.5,629.9,77.7L629.9,77.7z"/>
</svg>
