<?xml version="1.0" encoding="UTF-8"?>
<svg id="Livello_1" data-name="Livello 1" xmlns="http://www.w3.org/2000/svg" viewBox="0 0 299.6 129.04">
  <defs>
    <style>
      .cls-1 {
        letter-spacing: 0em;
      }

      .cls-2, .cls-3 {
        fill: #009fe3;
      }

      .cls-4 {
        fill: #009640;
      }

      .cls-5 {
        letter-spacing: -.02em;
      }

      .cls-6 {
        letter-spacing: -.01em;
      }

      .cls-7 {
        fill: none;
        stroke: #009fe3;
        stroke-miterlimit: 10;
      }

      .cls-3 {
        font-family: BalooBhaijaan-Regular, 'Baloo Bhaijaan';
        font-size: 7px;
      }
    </style>
  </defs>
  <g>
    <path class="cls-4" d="m157.26,52.28c0-.97.32-1.78.97-2.44.65-.66,1.51-.99,2.57-.99s1.93.33,2.57.99c.65.66.97,1.47.97,2.44s-.32,1.78-.97,2.44c-.65.66-1.51.99-2.57.99s-1.93-.33-2.57-.99c-.65-.66-.97-1.47-.97-2.44Z"/>
    <g>
      <path class="cls-4" d="m114.3,64.36c0-1.98.31-3.74.93-5.26.62-1.52,1.47-2.8,2.55-3.83,1.08-1.03,2.35-1.81,3.81-2.34,1.46-.53,3.04-.8,4.75-.8s3.28.27,4.75.8c1.46.53,2.74,1.32,3.83,2.34,1.09,1.03,1.95,2.31,2.57,3.83.62,1.53.93,3.28.93,5.26s-.31,3.74-.91,5.28c-.61,1.54-1.46,2.82-2.54,3.85-1.08,1.03-2.36,1.81-3.83,2.34-1.47.53-3.08.8-4.8.8s-3.33-.27-4.8-.82c-1.47-.55-2.74-1.34-3.81-2.38-1.07-1.04-1.91-2.33-2.52-3.85s-.91-3.27-.91-5.22Zm6.86,0c0,2.31.47,4.04,1.41,5.18.94,1.14,2.2,1.72,3.77,1.72s2.87-.57,3.81-1.72c.94-1.14,1.41-2.87,1.41-5.18s-.46-4-1.39-5.15c-.93-1.14-2.19-1.72-3.79-1.72s-2.84.57-3.79,1.7c-.95,1.13-1.43,2.85-1.43,5.17Z"/>
      <path class="cls-4" d="m148.23,75.92c-.25.08-.65.15-1.2.23-.55.08-1.11.11-1.7.11s-1.06-.04-1.51-.11c-.44-.08-.82-.23-1.12-.46s-.54-.54-.71-.93c-.17-.39-.25-.91-.25-1.54v-11.44c0-.58.11-1.09.32-1.51.22-.42.53-.79.93-1.12.41-.33.91-.63,1.51-.9.6-.27,1.24-.5,1.93-.71.69-.2,1.4-.36,2.13-.48.74-.11,1.47-.17,2.21-.17,1.22,0,2.19.24,2.9.71.71.47,1.07,1.24,1.07,2.31,0,.36-.05.71-.15,1.05-.1.34-.23.65-.38.93-.53,0-1.08.03-1.64.08-.56.05-1.11.13-1.64.23-.53.1-1.04.21-1.51.32-.47.11-.87.25-1.2.4v13Z"/>
      <path class="cls-4" d="m164.05,75.92c-.28.05-.69.12-1.24.21-.55.09-1.1.13-1.66.13s-1.06-.04-1.51-.11c-.44-.08-.82-.23-1.12-.46s-.54-.54-.71-.93c-.17-.39-.25-.91-.25-1.54v-15.52c.28-.05.69-.12,1.24-.21.55-.09,1.1-.13,1.66-.13s1.06.04,1.51.11c.44.08.82.23,1.12.46.3.23.54.54.71.93.16.39.25.91.25,1.54v15.52Z"/>
      <path class="cls-4" d="m168.81,75.95c-.41-.36-.73-.78-.97-1.26-.24-.48-.36-1.03-.36-1.64,0-.51.12-1.01.36-1.51.24-.5.54-.96.9-1.39l6.56-7.7h-7.01c-.15-.28-.3-.63-.44-1.07-.14-.43-.21-.9-.21-1.41,0-.89.2-1.53.59-1.93.39-.39.92-.59,1.58-.59h12.01c.41.36.73.78.97,1.26.24.48.36,1.03.36,1.64,0,.51-.12,1.01-.36,1.51-.24.5-.54.96-.9,1.39l-6.4,7.7h7.47c.15.28.3.64.44,1.07.14.43.21.9.21,1.41,0,.89-.2,1.53-.59,1.93-.39.39-.92.59-1.58.59h-12.62Z"/>
      <path class="cls-4" d="m205.3,66.69c0,1.58-.24,2.98-.72,4.21-.48,1.23-1.16,2.27-2.04,3.11-.88.84-1.93,1.47-3.15,1.91-1.22.43-2.58.65-4.08.65s-2.86-.23-4.08-.69c-1.22-.46-2.27-1.11-3.15-1.96-.88-.85-1.56-1.89-2.04-3.11-.48-1.22-.72-2.59-.72-4.12s.24-2.86.72-4.08c.48-1.22,1.16-2.26,2.04-3.11.88-.85,1.93-1.51,3.15-1.96,1.22-.46,2.58-.69,4.08-.69s2.86.24,4.08.71c1.22.47,2.27,1.13,3.15,1.98.88.85,1.56,1.89,2.04,3.11.48,1.22.72,2.57.72,4.04Zm-13.34,0c0,1.55.3,2.74.9,3.56.6.83,1.43,1.24,2.5,1.24s1.89-.42,2.46-1.26.86-2.02.86-3.55-.29-2.7-.88-3.53c-.58-.83-1.41-1.24-2.48-1.24s-1.89.41-2.48,1.24c-.59.83-.88,2-.88,3.53Z"/>
      <path class="cls-4" d="m220.2,64.21c0-.79-.22-1.37-.67-1.73-.44-.37-1.05-.55-1.81-.55-.51,0-1.01.06-1.51.19-.5.13-.92.32-1.28.57v13.23c-.25.08-.65.15-1.2.23-.55.08-1.11.11-1.7.11s-1.06-.04-1.51-.11c-.44-.08-.82-.23-1.12-.46s-.54-.54-.71-.93c-.17-.39-.25-.91-.25-1.54v-11.44c0-.69.15-1.24.44-1.68.29-.43.69-.83,1.2-1.18.86-.61,1.95-1.11,3.26-1.49,1.31-.38,2.76-.57,4.37-.57,2.87,0,5.08.63,6.63,1.89,1.55,1.26,2.33,3.01,2.33,5.24v11.93c-.25.08-.65.15-1.2.23-.55.08-1.11.11-1.7.11s-1.06-.04-1.51-.11c-.45-.08-.82-.23-1.12-.46-.31-.23-.54-.54-.71-.93-.17-.39-.25-.91-.25-1.54v-9Z"/>
    </g>
  </g>
  <path class="cls-7" d="m139.61,76.56v3.14c0,1.73-1.4,3.12-3.11,3.12h-45.05"/>
  <path class="cls-7" d="m103.05,47.93h33.45c1.72,0,3.11,1.4,3.11,3.11v2.54"/>
  <path class="cls-2" d="m104.45,47.93h2.3c0-3.59,2.92-6.51,6.51-6.51s6.51,2.92,6.51,6.51h2.3c0-4.86-3.94-8.8-8.81-8.8s-8.81,3.93-8.81,8.8"/>
  <text class="cls-3" transform="translate(141.75 86.43) scale(.96 1)"><tspan x="0" y="0">le</tspan><tspan class="cls-6" x="5.8" y="0">a</tspan><tspan class="cls-1" x="9.53" y="0">v</tspan><tspan x="13.31" y="0">e nothing but </tspan><tspan class="cls-5" x="57.46" y="0">f</tspan><tspan x="60.31" y="0">ootprints</tspan><tspan x="0" y="8.4">ta</tspan><tspan class="cls-5" x="6.61" y="8.4">k</tspan><tspan x="10.34" y="8.4">e nothing but memories</tspan></text>
  <path class="cls-4" d="m111.7,37.06c-.07-.3-.45-.4-.66-.16-1.08,1.26-4.02,4.09-8.82,4.28-4.46.17-6.67,2.29-7.94,4.31-.2.32-.7.18-.7-.2v-6.84c0-1.18-.96-2.14-2.14-2.14h0c-1.18,0-2.14.96-2.14,2.14v10.48c0,.38-.5.53-.7.2-1.26-2.02-3.47-4.14-7.93-4.32-4.79-.18-7.73-3.01-8.82-4.28-.2-.24-.59-.14-.66.16-.5,2.16-1.76,8.3-.81,11.31,1.17,3.7,1.92,7.33,10.36,8.82,5.17.91,6.9.11,8.16.06.22,0,.4.17.4.38v20.63c0,1.18.96,2.14,2.14,2.14h0c1.18,0,2.14-.96,2.14-2.14v-24.26c0-.22.18-.39.39-.38,1.26.03,2.99.84,8.17-.07,8.44-1.49,9.18-5.12,10.35-8.81.96-3.02-.31-9.16-.81-11.32Z"/>
</svg>