<?xml version="1.0" encoding="utf-8"?>
<!-- Generator: Adobe Illustrator 27.4.0, SVG Export Plug-In . SVG Version: 6.00 Build 0)  -->
<svg version="1.1" id="Livello_1" xmlns="http://www.w3.org/2000/svg" xmlns:xlink="http://www.w3.org/1999/xlink" x="0px" y="0px"
	 viewBox="0 0 174.2 75.6" style="enable-background:new 0 0 174.2 75.6;" xml:space="preserve">
<style type="text/css">
	.st0{fill:#009640;}
	.st1{fill:none;stroke:#009FE3;stroke-miterlimit:10;}
	.st2{fill:#009FE3;}
	.st3{font-family:'BalooBhaijaan-Regular';}
	.st4{font-size:7px;}
</style>
<g>
	<path class="st0" d="M94.8,22.8c0-1,0.3-1.8,1-2.4s1.5-1,2.6-1s1.9,0.3,2.6,1c0.6,0.7,1,1.5,1,2.4s-0.3,1.8-1,2.4s-1.5,1-2.6,1
		s-1.9-0.3-2.6-1C95.2,24.6,94.8,23.8,94.8,22.8z"/>
	<g>
		<path class="st0" d="M51.9,34.9c0-2,0.3-3.7,0.9-5.3s1.5-2.8,2.6-3.8c1.1-1,2.3-1.8,3.8-2.3s3-0.8,4.8-0.8c1.7,0,3.3,0.3,4.7,0.8
			c1.5,0.5,2.7,1.3,3.8,2.3c1.1,1,1.9,2.3,2.6,3.8c0.6,1.5,0.9,3.3,0.9,5.3s-0.3,3.7-0.9,5.3c-0.6,1.5-1.5,2.8-2.5,3.8
			c-1.1,1-2.4,1.8-3.8,2.3s-3.1,0.8-4.8,0.8c-1.7,0-3.3-0.3-4.8-0.8S56.4,45,55.3,44s-1.9-2.3-2.5-3.8S51.9,36.9,51.9,34.9z
			 M58.7,34.9c0,2.3,0.5,4,1.4,5.2s2.2,1.7,3.8,1.7c1.6,0,2.9-0.6,3.8-1.7c0.9-1.1,1.4-2.9,1.4-5.2s-0.5-4-1.4-5.2
			C66.8,28.6,65.6,28,64,28c-1.6,0-2.8,0.6-3.8,1.7C59.2,30.9,58.7,32.6,58.7,34.9z"/>
		<path class="st0" d="M85.8,46.5c-0.2,0.1-0.6,0.2-1.2,0.2s-1.1,0.1-1.7,0.1s-1.1,0-1.5-0.1c-0.4-0.1-0.8-0.2-1.1-0.5
			s-0.5-0.5-0.7-0.9c-0.2-0.4-0.2-0.9-0.2-1.5V32.3c0-0.6,0.1-1.1,0.3-1.5c0.2-0.4,0.5-0.8,0.9-1.1c0.4-0.3,0.9-0.6,1.5-0.9
			c0.6-0.3,1.2-0.5,1.9-0.7c0.7-0.2,1.4-0.4,2.1-0.5c0.7-0.1,1.5-0.2,2.2-0.2c1.2,0,2.2,0.2,2.9,0.7c0.7,0.5,1.1,1.2,1.1,2.3
			c0,0.4-0.1,0.7-0.1,1c-0.1,0.3-0.2,0.7-0.4,0.9c-0.5,0-1.1,0-1.6,0.1c-0.6,0-1.1,0.1-1.6,0.2s-1,0.2-1.5,0.3s-0.9,0.2-1.2,0.4
			L85.8,46.5L85.8,46.5z"/>
		<path class="st0" d="M101.6,46.5c-0.3,0.1-0.7,0.1-1.2,0.2s-1.1,0.1-1.7,0.1s-1.1,0-1.5-0.1c-0.4-0.1-0.8-0.2-1.1-0.5
			s-0.5-0.5-0.7-0.9c-0.2-0.4-0.2-0.9-0.2-1.5V28.3c0.3,0,0.7-0.1,1.2-0.2s1.1-0.1,1.7-0.1s1.1,0,1.5,0.1c0.4,0.1,0.8,0.2,1.1,0.5
			c0.3,0.2,0.5,0.5,0.7,0.9c0.2,0.4,0.2,0.9,0.2,1.5V46.5z"/>
		<path class="st0" d="M106.4,46.5c-0.4-0.4-0.7-0.8-1-1.3s-0.4-1-0.4-1.6c0-0.5,0.1-1,0.4-1.5s0.5-1,0.9-1.4l6.6-7.7h-7
			c-0.1-0.3-0.3-0.6-0.4-1.1c-0.1-0.4-0.2-0.9-0.2-1.4c0-0.9,0.2-1.5,0.6-1.9c0.4-0.4,0.9-0.6,1.6-0.6h12c0.4,0.4,0.7,0.8,1,1.3
			s0.4,1,0.4,1.6c0,0.5-0.1,1-0.4,1.5s-0.5,1-0.9,1.4l-6.4,7.7h7.5c0.1,0.3,0.3,0.6,0.4,1.1s0.2,0.9,0.2,1.4c0,0.9-0.2,1.5-0.6,1.9
			c-0.4,0.4-0.9,0.6-1.6,0.6L106.4,46.5L106.4,46.5z"/>
		<path class="st0" d="M142.9,37.2c0,1.6-0.2,3-0.7,4.2c-0.5,1.2-1.2,2.3-2,3.1c-0.9,0.8-1.9,1.5-3.1,1.9c-1.2,0.4-2.6,0.7-4.1,0.7
			s-2.9-0.2-4.1-0.7s-2.3-1.1-3.1-2c-0.9-0.8-1.6-1.9-2-3.1s-0.7-2.6-0.7-4.1s0.2-2.9,0.7-4.1s1.2-2.3,2-3.1c0.9-0.8,1.9-1.5,3.1-2
			c1.2-0.5,2.6-0.7,4.1-0.7s2.9,0.2,4.1,0.7c1.2,0.5,2.3,1.1,3.1,2c0.9,0.8,1.6,1.9,2,3.1S142.9,35.8,142.9,37.2z M129.5,37.2
			c0,1.6,0.3,2.7,0.9,3.6c0.6,0.8,1.4,1.2,2.5,1.2s1.9-0.4,2.5-1.3s0.9-2,0.9-3.6s-0.3-2.7-0.9-3.5c-0.6-0.8-1.4-1.2-2.5-1.2
			s-1.9,0.4-2.5,1.2S129.5,35.7,129.5,37.2L129.5,37.2z"/>
		<path class="st0" d="M157.8,34.8c0-0.8-0.2-1.4-0.7-1.7c-0.4-0.4-1.1-0.5-1.8-0.5c-0.5,0-1,0.1-1.5,0.2c-0.5,0.1-0.9,0.3-1.3,0.6
			v13.2c-0.2,0.1-0.6,0.2-1.2,0.2s-1.1,0.1-1.7,0.1s-1.1,0-1.5-0.1c-0.4-0.1-0.8-0.2-1.1-0.5s-0.5-0.5-0.7-0.9
			c-0.2-0.4-0.2-0.9-0.2-1.5V32.3c0-0.7,0.1-1.2,0.4-1.7c0.3-0.4,0.7-0.8,1.2-1.2c0.9-0.6,1.9-1.1,3.3-1.5s2.8-0.6,4.4-0.6
			c2.9,0,5.1,0.6,6.6,1.9s2.3,3,2.3,5.2v11.9c-0.2,0.1-0.6,0.2-1.2,0.2s-1.1,0.1-1.7,0.1s-1.1,0-1.5-0.1c-0.4-0.1-0.8-0.2-1.1-0.5
			c-0.3-0.2-0.5-0.5-0.7-0.9c-0.2-0.4-0.2-0.9-0.2-1.5L157.8,34.8L157.8,34.8z"/>
	</g>
</g>
<path class="st1" d="M77.2,47.1v3.1c0,1.7-1.4,3.1-3.1,3.1H29"/>
<path class="st1" d="M40.6,18.5h33.4c1.7,0,3.1,1.4,3.1,3.1v2.5"/>
<path class="st2" d="M42,18.5h2.3c0-3.6,2.9-6.5,6.5-6.5s6.5,2.9,6.5,6.5h2.3c0-4.9-3.9-8.8-8.8-8.8S42,13.6,42,18.5"/>
<text transform="matrix(0.96 0 0 1 79.3219 56.9818)" class="st2 st3 st4">le</text>
<text transform="matrix(0.96 0 0 1 84.8902 56.9818)" class="st2 st3 st4">a</text>
<text transform="matrix(0.96 0 0 1 88.4713 56.9818)" class="st2 st3 st4">v</text>
<text transform="matrix(0.96 0 0 1 92.0992 56.9818)" class="st2 st3 st4">e nothing but </text>
<text transform="matrix(0.96 0 0 1 134.484 56.9818)" class="st2 st3 st4">f</text>
<text transform="matrix(0.96 0 0 1 137.2193 56.9818)" class="st2 st3 st4">ootprints</text>
<text transform="matrix(0.96 0 0 1 79.3219 65.3817)" class="st2 st3 st4">ta</text>
<text transform="matrix(0.96 0 0 1 85.6676 65.3817)" class="st2 st3 st4">k</text>
<text transform="matrix(0.96 0 0 1 89.2486 65.3817)" class="st2 st3 st4">e nothing but memories</text>
<path class="st0" d="M49.3,7.6c-0.1-0.3-0.4-0.4-0.7-0.2c-1.1,1.3-4,4.1-8.8,4.3c-4.5,0.2-6.7,2.3-7.9,4.3c-0.2,0.3-0.7,0.2-0.7-0.2
	V9c0-1.2-1-2.1-2.1-2.1l0,0c-1.2,0-2.1,1-2.1,2.1v10.5c0,0.4-0.5,0.5-0.7,0.2c-1.3-2-3.5-4.1-7.9-4.3c-4.8-0.2-7.7-3-8.8-4.3
	c-0.2-0.2-0.6-0.1-0.7,0.2C8.3,13.4,7,19.5,8,22.6c1.2,3.7,1.9,7.3,10.4,8.8c5.2,0.9,6.9,0.1,8.2,0.1c0.2,0,0.4,0.2,0.4,0.4v20.6
	c0,1.2,1,2.1,2.1,2.1l0,0c1.2,0,2.1-1,2.1-2.1V28.2c0-0.2,0.2-0.4,0.4-0.4c1.3,0,3,0.8,8.2-0.1c8.4-1.5,9.2-5.1,10.3-8.8
	C51,15.9,49.8,9.8,49.3,7.6L49.3,7.6z"/>
</svg>
